<?xml version="1.0" standalone="no"?><!-- Generator: Gravit.io --><svg xmlns="http://www.w3.org/2000/svg" xmlns:xlink="http://www.w3.org/1999/xlink" style="isolation:isolate" viewBox="0 0 363 303.222" width="363" height="303.222"><defs><clipPath id="_clipPath_AJCT1SxvsINnpgeRFb3D8q1CFYevlesw"><rect width="363" height="303.222"/></clipPath></defs><g clip-path="url(#_clipPath_AJCT1SxvsINnpgeRFb3D8q1CFYevlesw)"><g id="Group"><g id="Group"><path d=" M 221 285.581 L 201 274.034 L 181 285.581 L 201 297.128 L 221 285.581 Z " fill="rgb(255,79,79)" vector-effect="non-scaling-stroke" stroke-width="1" stroke="rgb(255,255,255)" stroke-linejoin="miter" stroke-linecap="square" stroke-miterlimit="3"/><path d=" M 201 320.222 L 181 308.675 L 181 285.581 L 201 297.128 L 201 320.222 Z " fill="rgb(200,63,63)" vector-effect="non-scaling-stroke" stroke-width="1" stroke="rgb(255,255,255)" stroke-linejoin="miter" stroke-linecap="square" stroke-miterlimit="3"/><path d=" M 221 308.675 L 201 320.222 L 201 297.128 L 221 285.581 L 221 308.675 Z " fill="rgb(157,42,42)" vector-effect="non-scaling-stroke" stroke-width="1" stroke="rgb(255,255,255)" stroke-linejoin="miter" stroke-linecap="square" stroke-miterlimit="3"/></g><g id="Group"><path d=" M 221 262.487 L 201 250.94 L 181 262.487 L 201 274.034 L 221 262.487 Z " fill="rgb(255,79,79)" vector-effect="non-scaling-stroke" stroke-width="1" stroke="rgb(255,255,255)" stroke-linejoin="miter" stroke-linecap="square" stroke-miterlimit="3"/><path d=" M 201 297.128 L 181 285.581 L 181 262.487 L 201 274.034 L 201 297.128 Z " fill="rgb(200,63,63)" vector-effect="non-scaling-stroke" stroke-width="1" stroke="rgb(255,255,255)" stroke-linejoin="miter" stroke-linecap="square" stroke-miterlimit="3"/><path d=" M 221 285.581 L 201 297.128 L 201 274.034 L 221 262.487 L 221 285.581 Z " fill="rgb(157,42,42)" vector-effect="non-scaling-stroke" stroke-width="1" stroke="rgb(255,255,255)" stroke-linejoin="miter" stroke-linecap="square" stroke-miterlimit="3"/></g><g id="Group"><path d=" M 221 239.393 L 201 227.846 L 181 239.393 L 201 250.94 L 221 239.393 Z " fill="rgb(255,79,79)" vector-effect="non-scaling-stroke" stroke-width="1" stroke="rgb(255,255,255)" stroke-linejoin="miter" stroke-linecap="square" stroke-miterlimit="3"/><path d=" M 201 274.034 L 181 262.487 L 181 239.393 L 201 250.94 L 201 274.034 Z " fill="rgb(200,63,63)" vector-effect="non-scaling-stroke" stroke-width="1" stroke="rgb(255,255,255)" stroke-linejoin="miter" stroke-linecap="square" stroke-miterlimit="3"/><path d=" M 221 262.487 L 201 274.034 L 201 250.94 L 221 239.393 L 221 262.487 Z " fill="rgb(157,42,42)" vector-effect="non-scaling-stroke" stroke-width="1" stroke="rgb(255,255,255)" stroke-linejoin="miter" stroke-linecap="square" stroke-miterlimit="3"/></g><g id="Group"><path d=" M 221 216.299 L 201 204.752 L 181 216.299 L 201 227.846 L 221 216.299 Z " fill="rgb(255,79,79)" vector-effect="non-scaling-stroke" stroke-width="1" stroke="rgb(255,255,255)" stroke-linejoin="miter" stroke-linecap="square" stroke-miterlimit="3"/><path d=" M 201 250.94 L 181 239.393 L 181 216.299 L 201 227.846 L 201 250.94 Z " fill="rgb(200,63,63)" vector-effect="non-scaling-stroke" stroke-width="1" stroke="rgb(255,255,255)" stroke-linejoin="miter" stroke-linecap="square" stroke-miterlimit="3"/><path d=" M 221 239.393 L 201 250.94 L 201 227.846 L 221 216.299 L 221 239.393 Z " fill="rgb(157,42,42)" vector-effect="non-scaling-stroke" stroke-width="1" stroke="rgb(255,255,255)" stroke-linejoin="miter" stroke-linecap="square" stroke-miterlimit="3"/></g><g id="Group"><path d=" M 221 193.205 L 201 181.658 L 181 193.205 L 201 204.752 L 221 193.205 Z " fill="rgb(255,79,79)" vector-effect="non-scaling-stroke" stroke-width="1" stroke="rgb(255,255,255)" stroke-linejoin="miter" stroke-linecap="square" stroke-miterlimit="3"/><path d=" M 201 227.846 L 181 216.299 L 181 193.205 L 201 204.752 L 201 227.846 Z " fill="rgb(200,63,63)" vector-effect="non-scaling-stroke" stroke-width="1" stroke="rgb(255,255,255)" stroke-linejoin="miter" stroke-linecap="square" stroke-miterlimit="3"/><path d=" M 221 216.299 L 201 227.846 L 201 204.752 L 221 193.205 L 221 216.299 Z " fill="rgb(157,42,42)" vector-effect="non-scaling-stroke" stroke-width="1" stroke="rgb(255,255,255)" stroke-linejoin="miter" stroke-linecap="square" stroke-miterlimit="3"/></g><g id="Group"><path d=" M 221 170.111 L 201 158.564 L 181 170.111 L 201 181.658 L 221 170.111 Z " fill="rgb(255,79,79)" vector-effect="non-scaling-stroke" stroke-width="1" stroke="rgb(255,255,255)" stroke-linejoin="miter" stroke-linecap="square" stroke-miterlimit="3"/><path d=" M 201 204.752 L 181 193.205 L 181 170.111 L 201 181.658 L 201 204.752 Z " fill="rgb(200,63,63)" vector-effect="non-scaling-stroke" stroke-width="1" stroke="rgb(255,255,255)" stroke-linejoin="miter" stroke-linecap="square" stroke-miterlimit="3"/><path d=" M 221 193.205 L 201 204.752 L 201 181.658 L 221 170.111 L 221 193.205 Z " fill="rgb(157,42,42)" vector-effect="non-scaling-stroke" stroke-width="1" stroke="rgb(255,255,255)" stroke-linejoin="miter" stroke-linecap="square" stroke-miterlimit="3"/></g><g id="Group"><path d=" M 181 285.581 L 161 274.034 L 141 285.581 L 161 297.128 L 181 285.581 Z " fill="rgb(255,79,79)" vector-effect="non-scaling-stroke" stroke-width="1" stroke="rgb(255,255,255)" stroke-linejoin="miter" stroke-linecap="square" stroke-miterlimit="3"/><path d=" M 161 320.222 L 141 308.675 L 141 285.581 L 161 297.128 L 161 320.222 Z " fill="rgb(200,63,63)" vector-effect="non-scaling-stroke" stroke-width="1" stroke="rgb(255,255,255)" stroke-linejoin="miter" stroke-linecap="square" stroke-miterlimit="3"/><path d=" M 181 308.675 L 161 320.222 L 161 297.128 L 181 285.581 L 181 308.675 Z " fill="rgb(157,42,42)" vector-effect="non-scaling-stroke" stroke-width="1" stroke="rgb(255,255,255)" stroke-linejoin="miter" stroke-linecap="square" stroke-miterlimit="3"/></g><g id="Group"><path d=" M 141 285.581 L 121 274.034 L 101 285.581 L 121 297.128 L 141 285.581 Z " fill="rgb(255,79,79)" vector-effect="non-scaling-stroke" stroke-width="1" stroke="rgb(255,255,255)" stroke-linejoin="miter" stroke-linecap="square" stroke-miterlimit="3"/><path d=" M 121 320.222 L 101 308.675 L 101 285.581 L 121 297.128 L 121 320.222 Z " fill="rgb(200,63,63)" vector-effect="non-scaling-stroke" stroke-width="1" stroke="rgb(255,255,255)" stroke-linejoin="miter" stroke-linecap="square" stroke-miterlimit="3"/><path d=" M 141 308.675 L 121 320.222 L 121 297.128 L 141 285.581 L 141 308.675 Z " fill="rgb(157,42,42)" vector-effect="non-scaling-stroke" stroke-width="1" stroke="rgb(255,255,255)" stroke-linejoin="miter" stroke-linecap="square" stroke-miterlimit="3"/></g><g id="Group"><path d=" M 101 285.581 L 81 274.034 L 61 285.581 L 81 297.128 L 101 285.581 Z " fill="rgb(255,79,79)" vector-effect="non-scaling-stroke" stroke-width="1" stroke="rgb(255,255,255)" stroke-linejoin="miter" stroke-linecap="square" stroke-miterlimit="3"/><path d=" M 81 320.222 L 61 308.675 L 61 285.581 L 81 297.128 L 81 320.222 Z " fill="rgb(200,63,63)" vector-effect="non-scaling-stroke" stroke-width="1" stroke="rgb(255,255,255)" stroke-linejoin="miter" stroke-linecap="square" stroke-miterlimit="3"/><path d=" M 101 308.675 L 81 320.222 L 81 297.128 L 101 285.581 L 101 308.675 Z " fill="rgb(157,42,42)" vector-effect="non-scaling-stroke" stroke-width="1" stroke="rgb(255,255,255)" stroke-linejoin="miter" stroke-linecap="square" stroke-miterlimit="3"/></g><g id="Group"><path d=" M 61 285.581 L 41 274.034 L 21 285.581 L 41 297.128 L 61 285.581 Z " fill="rgb(255,79,79)" vector-effect="non-scaling-stroke" stroke-width="1" stroke="rgb(255,255,255)" stroke-linejoin="miter" stroke-linecap="square" stroke-miterlimit="3"/><path d=" M 41 320.222 L 21 308.675 L 21 285.581 L 41 297.128 L 41 320.222 Z " fill="rgb(200,63,63)" vector-effect="non-scaling-stroke" stroke-width="1" stroke="rgb(255,255,255)" stroke-linejoin="miter" stroke-linecap="square" stroke-miterlimit="3"/><path d=" M 61 308.675 L 41 320.222 L 41 297.128 L 61 285.581 L 61 308.675 Z " fill="rgb(157,42,42)" vector-effect="non-scaling-stroke" stroke-width="1" stroke="rgb(255,255,255)" stroke-linejoin="miter" stroke-linecap="square" stroke-miterlimit="3"/></g><g id="Group"><path d=" M 101 262.487 L 81 250.94 L 61 262.487 L 81 274.034 L 101 262.487 Z " fill="rgb(255,79,79)" vector-effect="non-scaling-stroke" stroke-width="1" stroke="rgb(255,255,255)" stroke-linejoin="miter" stroke-linecap="square" stroke-miterlimit="3"/><path d=" M 81 297.128 L 61 285.581 L 61 262.487 L 81 274.034 L 81 297.128 Z " fill="rgb(200,63,63)" vector-effect="non-scaling-stroke" stroke-width="1" stroke="rgb(255,255,255)" stroke-linejoin="miter" stroke-linecap="square" stroke-miterlimit="3"/><path d=" M 101 285.581 L 81 297.128 L 81 274.034 L 101 262.487 L 101 285.581 Z " fill="rgb(157,42,42)" vector-effect="non-scaling-stroke" stroke-width="1" stroke="rgb(255,255,255)" stroke-linejoin="miter" stroke-linecap="square" stroke-miterlimit="3"/></g><g id="Group"><path d=" M 61 262.487 L 41 250.94 L 21 262.487 L 41 274.034 L 61 262.487 Z " fill="rgb(255,79,79)" vector-effect="non-scaling-stroke" stroke-width="1" stroke="rgb(255,255,255)" stroke-linejoin="miter" stroke-linecap="square" stroke-miterlimit="3"/><path d=" M 41 297.128 L 21 285.581 L 21 262.487 L 41 274.034 L 41 297.128 Z " fill="rgb(200,63,63)" vector-effect="non-scaling-stroke" stroke-width="1" stroke="rgb(255,255,255)" stroke-linejoin="miter" stroke-linecap="square" stroke-miterlimit="3"/><path d=" M 61 285.581 L 41 297.128 L 41 274.034 L 61 262.487 L 61 285.581 Z " fill="rgb(157,42,42)" vector-effect="non-scaling-stroke" stroke-width="1" stroke="rgb(255,255,255)" stroke-linejoin="miter" stroke-linecap="square" stroke-miterlimit="3"/></g><g id="Group"><path d=" M 61 239.393 L 41 227.846 L 21 239.393 L 41 250.94 L 61 239.393 Z " fill="rgb(255,79,79)" vector-effect="non-scaling-stroke" stroke-width="1" stroke="rgb(255,255,255)" stroke-linejoin="miter" stroke-linecap="square" stroke-miterlimit="3"/><path d=" M 41 274.034 L 21 262.487 L 21 239.393 L 41 250.94 L 41 274.034 Z " fill="rgb(200,63,63)" vector-effect="non-scaling-stroke" stroke-width="1" stroke="rgb(255,255,255)" stroke-linejoin="miter" stroke-linecap="square" stroke-miterlimit="3"/><path d=" M 61 262.487 L 41 274.034 L 41 250.94 L 61 239.393 L 61 262.487 Z " fill="rgb(157,42,42)" vector-effect="non-scaling-stroke" stroke-width="1" stroke="rgb(255,255,255)" stroke-linejoin="miter" stroke-linecap="square" stroke-miterlimit="3"/></g><g id="Group"><path d=" M 61 216.299 L 41 204.752 L 21 216.299 L 41 227.846 L 61 216.299 Z " fill="rgb(255,79,79)" vector-effect="non-scaling-stroke" stroke-width="1" stroke="rgb(255,255,255)" stroke-linejoin="miter" stroke-linecap="square" stroke-miterlimit="3"/><path d=" M 41 250.94 L 21 239.393 L 21 216.299 L 41 227.846 L 41 250.94 Z " fill="rgb(200,63,63)" vector-effect="non-scaling-stroke" stroke-width="1" stroke="rgb(255,255,255)" stroke-linejoin="miter" stroke-linecap="square" stroke-miterlimit="3"/><path d=" M 61 239.393 L 41 250.94 L 41 227.846 L 61 216.299 L 61 239.393 Z " fill="rgb(157,42,42)" vector-effect="non-scaling-stroke" stroke-width="1" stroke="rgb(255,255,255)" stroke-linejoin="miter" stroke-linecap="square" stroke-miterlimit="3"/></g><g id="Group"><path d=" M 61 193.205 L 41 181.658 L 21 193.205 L 41 204.752 L 61 193.205 Z " fill="rgb(255,79,79)" vector-effect="non-scaling-stroke" stroke-width="1" stroke="rgb(255,255,255)" stroke-linejoin="miter" stroke-linecap="square" stroke-miterlimit="3"/><path d=" M 41 227.846 L 21 216.299 L 21 193.205 L 41 204.752 L 41 227.846 Z " fill="rgb(200,63,63)" vector-effect="non-scaling-stroke" stroke-width="1" stroke="rgb(255,255,255)" stroke-linejoin="miter" stroke-linecap="square" stroke-miterlimit="3"/><path d=" M 61 216.299 L 41 227.846 L 41 204.752 L 61 193.205 L 61 216.299 Z " fill="rgb(157,42,42)" vector-effect="non-scaling-stroke" stroke-width="1" stroke="rgb(255,255,255)" stroke-linejoin="miter" stroke-linecap="square" stroke-miterlimit="3"/></g><g id="Group"><path d=" M 61 170.111 L 41 158.564 L 21 170.111 L 41 181.658 L 61 170.111 Z " fill="rgb(255,79,79)" vector-effect="non-scaling-stroke" stroke-width="1" stroke="rgb(255,255,255)" stroke-linejoin="miter" stroke-linecap="square" stroke-miterlimit="3"/><path d=" M 41 204.752 L 21 193.205 L 21 170.111 L 41 181.658 L 41 204.752 Z " fill="rgb(200,63,63)" vector-effect="non-scaling-stroke" stroke-width="1" stroke="rgb(255,255,255)" stroke-linejoin="miter" stroke-linecap="square" stroke-miterlimit="3"/><path d=" M 61 193.205 L 41 204.752 L 41 181.658 L 61 170.111 L 61 193.205 Z " fill="rgb(157,42,42)" vector-effect="non-scaling-stroke" stroke-width="1" stroke="rgb(255,255,255)" stroke-linejoin="miter" stroke-linecap="square" stroke-miterlimit="3"/></g><g id="Group"><path d=" M 61 147.017 L 41 135.47 L 21 147.017 L 41 158.564 L 61 147.017 Z " fill="rgb(255,79,79)" vector-effect="non-scaling-stroke" stroke-width="1" stroke="rgb(255,255,255)" stroke-linejoin="miter" stroke-linecap="square" stroke-miterlimit="3"/><path d=" M 41 181.658 L 21 170.111 L 21 147.017 L 41 158.564 L 41 181.658 Z " fill="rgb(200,63,63)" vector-effect="non-scaling-stroke" stroke-width="1" stroke="rgb(255,255,255)" stroke-linejoin="miter" stroke-linecap="square" stroke-miterlimit="3"/><path d=" M 61 170.111 L 41 181.658 L 41 158.564 L 61 147.017 L 61 170.111 Z " fill="rgb(157,42,42)" vector-effect="non-scaling-stroke" stroke-width="1" stroke="rgb(255,255,255)" stroke-linejoin="miter" stroke-linecap="square" stroke-miterlimit="3"/></g><g id="Group"><path d=" M 61 123.923 L 41 112.376 L 21 123.923 L 41 135.47 L 61 123.923 Z " fill="rgb(255,79,79)" vector-effect="non-scaling-stroke" stroke-width="1" stroke="rgb(255,255,255)" stroke-linejoin="miter" stroke-linecap="square" stroke-miterlimit="3"/><path d=" M 41 158.564 L 21 147.017 L 21 123.923 L 41 135.47 L 41 158.564 Z " fill="rgb(200,63,63)" vector-effect="non-scaling-stroke" stroke-width="1" stroke="rgb(255,255,255)" stroke-linejoin="miter" stroke-linecap="square" stroke-miterlimit="3"/><path d=" M 61 147.017 L 41 158.564 L 41 135.47 L 61 123.923 L 61 147.017 Z " fill="rgb(157,42,42)" vector-effect="non-scaling-stroke" stroke-width="1" stroke="rgb(255,255,255)" stroke-linejoin="miter" stroke-linecap="square" stroke-miterlimit="3"/></g><g id="Group"><path d=" M 21 285.581 L 1 274.034 L -19 285.581 L 1 297.128 L 21 285.581 Z " fill="rgb(255,79,79)" vector-effect="non-scaling-stroke" stroke-width="1" stroke="rgb(255,255,255)" stroke-linejoin="miter" stroke-linecap="square" stroke-miterlimit="3"/><path d=" M 1 320.222 L -19 308.675 L -19 285.581 L 1 297.128 L 1 320.222 Z " fill="rgb(200,63,63)" vector-effect="non-scaling-stroke" stroke-width="1" stroke="rgb(255,255,255)" stroke-linejoin="miter" stroke-linecap="square" stroke-miterlimit="3"/><path d=" M 21 308.675 L 1 320.222 L 1 297.128 L 21 285.581 L 21 308.675 Z " fill="rgb(157,42,42)" vector-effect="non-scaling-stroke" stroke-width="1" stroke="rgb(255,255,255)" stroke-linejoin="miter" stroke-linecap="square" stroke-miterlimit="3"/></g><g id="Group"><path d=" M 21 262.487 L 1 250.94 L -19 262.487 L 1 274.034 L 21 262.487 Z " fill="rgb(255,79,79)" vector-effect="non-scaling-stroke" stroke-width="1" stroke="rgb(255,255,255)" stroke-linejoin="miter" stroke-linecap="square" stroke-miterlimit="3"/><path d=" M 1 297.128 L -19 285.581 L -19 262.487 L 1 274.034 L 1 297.128 Z " fill="rgb(200,63,63)" vector-effect="non-scaling-stroke" stroke-width="1" stroke="rgb(255,255,255)" stroke-linejoin="miter" stroke-linecap="square" stroke-miterlimit="3"/><path d=" M 21 285.581 L 1 297.128 L 1 274.034 L 21 262.487 L 21 285.581 Z " fill="rgb(157,42,42)" vector-effect="non-scaling-stroke" stroke-width="1" stroke="rgb(255,255,255)" stroke-linejoin="miter" stroke-linecap="square" stroke-miterlimit="3"/></g><g id="Group"><path d=" M 21 239.393 L 1 227.846 L -19 239.393 L 1 250.94 L 21 239.393 Z " fill="rgb(255,79,79)" vector-effect="non-scaling-stroke" stroke-width="1" stroke="rgb(255,255,255)" stroke-linejoin="miter" stroke-linecap="square" stroke-miterlimit="3"/><path d=" M 1 274.034 L -19 262.487 L -19 239.393 L 1 250.94 L 1 274.034 Z " fill="rgb(200,63,63)" vector-effect="non-scaling-stroke" stroke-width="1" stroke="rgb(255,255,255)" stroke-linejoin="miter" stroke-linecap="square" stroke-miterlimit="3"/><path d=" M 21 262.487 L 1 274.034 L 1 250.94 L 21 239.393 L 21 262.487 Z " fill="rgb(157,42,42)" vector-effect="non-scaling-stroke" stroke-width="1" stroke="rgb(255,255,255)" stroke-linejoin="miter" stroke-linecap="square" stroke-miterlimit="3"/></g><g id="Group"><path d=" M 21 216.299 L 1 204.752 L -19 216.299 L 1 227.846 L 21 216.299 Z " fill="rgb(255,79,79)" vector-effect="non-scaling-stroke" stroke-width="1" stroke="rgb(255,255,255)" stroke-linejoin="miter" stroke-linecap="square" stroke-miterlimit="3"/><path d=" M 1 250.94 L -19 239.393 L -19 216.299 L 1 227.846 L 1 250.94 Z " fill="rgb(200,63,63)" vector-effect="non-scaling-stroke" stroke-width="1" stroke="rgb(255,255,255)" stroke-linejoin="miter" stroke-linecap="square" stroke-miterlimit="3"/><path d=" M 21 239.393 L 1 250.94 L 1 227.846 L 21 216.299 L 21 239.393 Z " fill="rgb(157,42,42)" vector-effect="non-scaling-stroke" stroke-width="1" stroke="rgb(255,255,255)" stroke-linejoin="miter" stroke-linecap="square" stroke-miterlimit="3"/></g><g id="Group"><path d=" M 21 193.205 L 1 181.658 L -19 193.205 L 1 204.752 L 21 193.205 Z " fill="rgb(255,79,79)" vector-effect="non-scaling-stroke" stroke-width="1" stroke="rgb(255,255,255)" stroke-linejoin="miter" stroke-linecap="square" stroke-miterlimit="3"/><path d=" M 1 227.846 L -19 216.299 L -19 193.205 L 1 204.752 L 1 227.846 Z " fill="rgb(200,63,63)" vector-effect="non-scaling-stroke" stroke-width="1" stroke="rgb(255,255,255)" stroke-linejoin="miter" stroke-linecap="square" stroke-miterlimit="3"/><path d=" M 21 216.299 L 1 227.846 L 1 204.752 L 21 193.205 L 21 216.299 Z " fill="rgb(157,42,42)" vector-effect="non-scaling-stroke" stroke-width="1" stroke="rgb(255,255,255)" stroke-linejoin="miter" stroke-linecap="square" stroke-miterlimit="3"/></g><g id="Group"><path d=" M 21 170.111 L 1 158.564 L -19 170.111 L 1 181.658 L 21 170.111 Z " fill="rgb(255,79,79)" vector-effect="non-scaling-stroke" stroke-width="1" stroke="rgb(255,255,255)" stroke-linejoin="miter" stroke-linecap="square" stroke-miterlimit="3"/><path d=" M 1 204.752 L -19 193.205 L -19 170.111 L 1 181.658 L 1 204.752 Z " fill="rgb(200,63,63)" vector-effect="non-scaling-stroke" stroke-width="1" stroke="rgb(255,255,255)" stroke-linejoin="miter" stroke-linecap="square" stroke-miterlimit="3"/><path d=" M 21 193.205 L 1 204.752 L 1 181.658 L 21 170.111 L 21 193.205 Z " fill="rgb(157,42,42)" vector-effect="non-scaling-stroke" stroke-width="1" stroke="rgb(255,255,255)" stroke-linejoin="miter" stroke-linecap="square" stroke-miterlimit="3"/></g><g id="Group"><path d=" M 21 147.017 L 1 135.47 L -19 147.017 L 1 158.564 L 21 147.017 Z " fill="rgb(255,79,79)" vector-effect="non-scaling-stroke" stroke-width="1" stroke="rgb(255,255,255)" stroke-linejoin="miter" stroke-linecap="square" stroke-miterlimit="3"/><path d=" M 1 181.658 L -19 170.111 L -19 147.017 L 1 158.564 L 1 181.658 Z " fill="rgb(200,63,63)" vector-effect="non-scaling-stroke" stroke-width="1" stroke="rgb(255,255,255)" stroke-linejoin="miter" stroke-linecap="square" stroke-miterlimit="3"/><path d=" M 21 170.111 L 1 181.658 L 1 158.564 L 21 147.017 L 21 170.111 Z " fill="rgb(157,42,42)" vector-effect="non-scaling-stroke" stroke-width="1" stroke="rgb(255,255,255)" stroke-linejoin="miter" stroke-linecap="square" stroke-miterlimit="3"/></g><g id="Group"><path d=" M 21 123.923 L 1 112.376 L -19 123.923 L 1 135.47 L 21 123.923 Z " fill="rgb(255,79,79)" vector-effect="non-scaling-stroke" stroke-width="1" stroke="rgb(255,255,255)" stroke-linejoin="miter" stroke-linecap="square" stroke-miterlimit="3"/><path d=" M 1 158.564 L -19 147.017 L -19 123.923 L 1 135.47 L 1 158.564 Z " fill="rgb(200,63,63)" vector-effect="non-scaling-stroke" stroke-width="1" stroke="rgb(255,255,255)" stroke-linejoin="miter" stroke-linecap="square" stroke-miterlimit="3"/><path d=" M 21 147.017 L 1 158.564 L 1 135.47 L 21 123.923 L 21 147.017 Z " fill="rgb(157,42,42)" vector-effect="non-scaling-stroke" stroke-width="1" stroke="rgb(255,255,255)" stroke-linejoin="miter" stroke-linecap="square" stroke-miterlimit="3"/></g><g id="Group"><path d=" M 101 239.393 L 81 227.846 L 61 239.393 L 81 250.94 L 101 239.393 Z " fill="rgb(255,79,79)" vector-effect="non-scaling-stroke" stroke-width="1" stroke="rgb(255,255,255)" stroke-linejoin="miter" stroke-linecap="square" stroke-miterlimit="3"/><path d=" M 81 274.034 L 61 262.487 L 61 239.393 L 81 250.94 L 81 274.034 Z " fill="rgb(200,63,63)" vector-effect="non-scaling-stroke" stroke-width="1" stroke="rgb(255,255,255)" stroke-linejoin="miter" stroke-linecap="square" stroke-miterlimit="3"/><path d=" M 101 262.487 L 81 274.034 L 81 250.94 L 101 239.393 L 101 262.487 Z " fill="rgb(157,42,42)" vector-effect="non-scaling-stroke" stroke-width="1" stroke="rgb(255,255,255)" stroke-linejoin="miter" stroke-linecap="square" stroke-miterlimit="3"/></g><g id="Group"><path d=" M 101 216.299 L 81 204.752 L 61 216.299 L 81 227.846 L 101 216.299 Z " fill="rgb(255,79,79)" vector-effect="non-scaling-stroke" stroke-width="1" stroke="rgb(255,255,255)" stroke-linejoin="miter" stroke-linecap="square" stroke-miterlimit="3"/><path d=" M 81 250.94 L 61 239.393 L 61 216.299 L 81 227.846 L 81 250.94 Z " fill="rgb(200,63,63)" vector-effect="non-scaling-stroke" stroke-width="1" stroke="rgb(255,255,255)" stroke-linejoin="miter" stroke-linecap="square" stroke-miterlimit="3"/><path d=" M 101 239.393 L 81 250.94 L 81 227.846 L 101 216.299 L 101 239.393 Z " fill="rgb(157,42,42)" vector-effect="non-scaling-stroke" stroke-width="1" stroke="rgb(255,255,255)" stroke-linejoin="miter" stroke-linecap="square" stroke-miterlimit="3"/></g><g id="Group"><path d=" M 101 193.205 L 81 181.658 L 61 193.205 L 81 204.752 L 101 193.205 Z " fill="rgb(255,79,79)" vector-effect="non-scaling-stroke" stroke-width="1" stroke="rgb(255,255,255)" stroke-linejoin="miter" stroke-linecap="square" stroke-miterlimit="3"/><path d=" M 81 227.846 L 61 216.299 L 61 193.205 L 81 204.752 L 81 227.846 Z " fill="rgb(200,63,63)" vector-effect="non-scaling-stroke" stroke-width="1" stroke="rgb(255,255,255)" stroke-linejoin="miter" stroke-linecap="square" stroke-miterlimit="3"/><path d=" M 101 216.299 L 81 227.846 L 81 204.752 L 101 193.205 L 101 216.299 Z " fill="rgb(157,42,42)" vector-effect="non-scaling-stroke" stroke-width="1" stroke="rgb(255,255,255)" stroke-linejoin="miter" stroke-linecap="square" stroke-miterlimit="3"/></g><g id="Group"><path d=" M 141 262.487 L 121 250.94 L 101 262.487 L 121 274.034 L 141 262.487 Z " fill="rgb(255,79,79)" vector-effect="non-scaling-stroke" stroke-width="1" stroke="rgb(255,255,255)" stroke-linejoin="miter" stroke-linecap="square" stroke-miterlimit="3"/><path d=" M 121 297.128 L 101 285.581 L 101 262.487 L 121 274.034 L 121 297.128 Z " fill="rgb(200,63,63)" vector-effect="non-scaling-stroke" stroke-width="1" stroke="rgb(255,255,255)" stroke-linejoin="miter" stroke-linecap="square" stroke-miterlimit="3"/><path d=" M 141 285.581 L 121 297.128 L 121 274.034 L 141 262.487 L 141 285.581 Z " fill="rgb(157,42,42)" vector-effect="non-scaling-stroke" stroke-width="1" stroke="rgb(255,255,255)" stroke-linejoin="miter" stroke-linecap="square" stroke-miterlimit="3"/></g><g id="Group"><path d=" M 141 239.393 L 121 227.846 L 101 239.393 L 121 250.94 L 141 239.393 Z " fill="rgb(255,79,79)" vector-effect="non-scaling-stroke" stroke-width="1" stroke="rgb(255,255,255)" stroke-linejoin="miter" stroke-linecap="square" stroke-miterlimit="3"/><path d=" M 121 274.034 L 101 262.487 L 101 239.393 L 121 250.94 L 121 274.034 Z " fill="rgb(200,63,63)" vector-effect="non-scaling-stroke" stroke-width="1" stroke="rgb(255,255,255)" stroke-linejoin="miter" stroke-linecap="square" stroke-miterlimit="3"/><path d=" M 141 262.487 L 121 274.034 L 121 250.94 L 141 239.393 L 141 262.487 Z " fill="rgb(157,42,42)" vector-effect="non-scaling-stroke" stroke-width="1" stroke="rgb(255,255,255)" stroke-linejoin="miter" stroke-linecap="square" stroke-miterlimit="3"/><g id="Group"><path d=" M 181 262.487 L 161 250.94 L 141 262.487 L 161 274.034 L 181 262.487 Z " fill="rgb(255,79,79)" vector-effect="non-scaling-stroke" stroke-width="1" stroke="rgb(255,255,255)" stroke-linejoin="miter" stroke-linecap="square" stroke-miterlimit="3"/><path d=" M 161 297.128 L 141 285.581 L 141 262.487 L 161 274.034 L 161 297.128 Z " fill="rgb(200,63,63)" vector-effect="non-scaling-stroke" stroke-width="1" stroke="rgb(255,255,255)" stroke-linejoin="miter" stroke-linecap="square" stroke-miterlimit="3"/><path d=" M 181 285.581 L 161 297.128 L 161 274.034 L 181 262.487 L 181 285.581 Z " fill="rgb(157,42,42)" vector-effect="non-scaling-stroke" stroke-width="1" stroke="rgb(255,255,255)" stroke-linejoin="miter" stroke-linecap="square" stroke-miterlimit="3"/></g></g><g id="Group"><path d=" M 141 216.299 L 121 204.752 L 101 216.299 L 121 227.846 L 141 216.299 Z " fill="rgb(255,79,79)" vector-effect="non-scaling-stroke" stroke-width="1" stroke="rgb(255,255,255)" stroke-linejoin="miter" stroke-linecap="square" stroke-miterlimit="3"/><path d=" M 121 250.94 L 101 239.393 L 101 216.299 L 121 227.846 L 121 250.94 Z " fill="rgb(200,63,63)" vector-effect="non-scaling-stroke" stroke-width="1" stroke="rgb(255,255,255)" stroke-linejoin="miter" stroke-linecap="square" stroke-miterlimit="3"/><path d=" M 141 239.393 L 121 250.94 L 121 227.846 L 141 216.299 L 141 239.393 Z " fill="rgb(157,42,42)" vector-effect="non-scaling-stroke" stroke-width="1" stroke="rgb(255,255,255)" stroke-linejoin="miter" stroke-linecap="square" stroke-miterlimit="3"/></g><g id="Group"><path d=" M 21 100.829 L 1 89.282 L -19 100.829 L 1 112.376 L 21 100.829 Z " fill="rgb(255,79,79)" vector-effect="non-scaling-stroke" stroke-width="1" stroke="rgb(255,255,255)" stroke-linejoin="miter" stroke-linecap="square" stroke-miterlimit="3"/><path d=" M 1 135.47 L -19 123.923 L -19 100.829 L 1 112.376 L 1 135.47 Z " fill="rgb(200,63,63)" vector-effect="non-scaling-stroke" stroke-width="1" stroke="rgb(255,255,255)" stroke-linejoin="miter" stroke-linecap="square" stroke-miterlimit="3"/><path d=" M 21 123.923 L 1 135.47 L 1 112.376 L 21 100.829 L 21 123.923 Z " fill="rgb(157,42,42)" vector-effect="non-scaling-stroke" stroke-width="1" stroke="rgb(255,255,255)" stroke-linejoin="miter" stroke-linecap="square" stroke-miterlimit="3"/></g><g id="Group"><path d=" M 21 77.735 L 1 66.188 L -19 77.735 L 1 89.282 L 21 77.735 Z " fill="rgb(255,79,79)" vector-effect="non-scaling-stroke" stroke-width="1" stroke="rgb(255,255,255)" stroke-linejoin="miter" stroke-linecap="square" stroke-miterlimit="3"/><path d=" M 1 112.376 L -19 100.829 L -19 77.735 L 1 89.282 L 1 112.376 Z " fill="rgb(200,63,63)" vector-effect="non-scaling-stroke" stroke-width="1" stroke="rgb(255,255,255)" stroke-linejoin="miter" stroke-linecap="square" stroke-miterlimit="3"/><path d=" M 21 100.829 L 1 112.376 L 1 89.282 L 21 77.735 L 21 100.829 Z " fill="rgb(157,42,42)" vector-effect="non-scaling-stroke" stroke-width="1" stroke="rgb(255,255,255)" stroke-linejoin="miter" stroke-linecap="square" stroke-miterlimit="3"/></g><g id="Group"><path d=" M 21 54.641 L 1 43.094 L -19 54.641 L 1 66.188 L 21 54.641 Z " fill="rgb(255,79,79)" vector-effect="non-scaling-stroke" stroke-width="1" stroke="rgb(255,255,255)" stroke-linejoin="miter" stroke-linecap="square" stroke-miterlimit="3"/><path d=" M 1 89.282 L -19 77.735 L -19 54.641 L 1 66.188 L 1 89.282 Z " fill="rgb(200,63,63)" vector-effect="non-scaling-stroke" stroke-width="1" stroke="rgb(255,255,255)" stroke-linejoin="miter" stroke-linecap="square" stroke-miterlimit="3"/><path d=" M 21 77.735 L 1 89.282 L 1 66.188 L 21 54.641 L 21 77.735 Z " fill="rgb(157,42,42)" vector-effect="non-scaling-stroke" stroke-width="1" stroke="rgb(255,255,255)" stroke-linejoin="miter" stroke-linecap="square" stroke-miterlimit="3"/></g><g id="Group"><path d=" M 21 31.547 L 1 20 L -19 31.547 L 1 43.094 L 21 31.547 Z " fill="rgb(255,79,79)" vector-effect="non-scaling-stroke" stroke-width="1" stroke="rgb(255,255,255)" stroke-linejoin="miter" stroke-linecap="square" stroke-miterlimit="3"/><path d=" M 1 66.188 L -19 54.641 L -19 31.547 L 1 43.094 L 1 66.188 Z " fill="rgb(200,63,63)" vector-effect="non-scaling-stroke" stroke-width="1" stroke="rgb(255,255,255)" stroke-linejoin="miter" stroke-linecap="square" stroke-miterlimit="3"/><path d=" M 21 54.641 L 1 66.188 L 1 43.094 L 21 31.547 L 21 54.641 Z " fill="rgb(157,42,42)" vector-effect="non-scaling-stroke" stroke-width="1" stroke="rgb(255,255,255)" stroke-linejoin="miter" stroke-linecap="square" stroke-miterlimit="3"/></g><g id="Group"><path d=" M 141 193.205 L 121 181.658 L 101 193.205 L 121 204.752 L 141 193.205 Z " fill="rgb(255,79,79)" vector-effect="non-scaling-stroke" stroke-width="1" stroke="rgb(255,255,255)" stroke-linejoin="miter" stroke-linecap="square" stroke-miterlimit="3"/><path d=" M 121 227.846 L 101 216.299 L 101 193.205 L 121 204.752 L 121 227.846 Z " fill="rgb(200,63,63)" vector-effect="non-scaling-stroke" stroke-width="1" stroke="rgb(255,255,255)" stroke-linejoin="miter" stroke-linecap="square" stroke-miterlimit="3"/><path d=" M 141 216.299 L 121 227.846 L 121 204.752 L 141 193.205 L 141 216.299 Z " fill="rgb(157,42,42)" vector-effect="non-scaling-stroke" stroke-width="1" stroke="rgb(255,255,255)" stroke-linejoin="miter" stroke-linecap="square" stroke-miterlimit="3"/></g><g id="Group"><path d=" M 141 170.111 L 121 158.564 L 101 170.111 L 121 181.658 L 141 170.111 Z " fill="rgb(255,79,79)" vector-effect="non-scaling-stroke" stroke-width="1" stroke="rgb(255,255,255)" stroke-linejoin="miter" stroke-linecap="square" stroke-miterlimit="3"/><path d=" M 121 204.752 L 101 193.205 L 101 170.111 L 121 181.658 L 121 204.752 Z " fill="rgb(200,63,63)" vector-effect="non-scaling-stroke" stroke-width="1" stroke="rgb(255,255,255)" stroke-linejoin="miter" stroke-linecap="square" stroke-miterlimit="3"/><path d=" M 141 193.205 L 121 204.752 L 121 181.658 L 141 170.111 L 141 193.205 Z " fill="rgb(157,42,42)" vector-effect="non-scaling-stroke" stroke-width="1" stroke="rgb(255,255,255)" stroke-linejoin="miter" stroke-linecap="square" stroke-miterlimit="3"/></g><g id="Group"><path d=" M 141 147.017 L 121 135.47 L 101 147.017 L 121 158.564 L 141 147.017 Z " fill="rgb(255,79,79)" vector-effect="non-scaling-stroke" stroke-width="1" stroke="rgb(255,255,255)" stroke-linejoin="miter" stroke-linecap="square" stroke-miterlimit="3"/><path d=" M 121 181.658 L 101 170.111 L 101 147.017 L 121 158.564 L 121 181.658 Z " fill="rgb(200,63,63)" vector-effect="non-scaling-stroke" stroke-width="1" stroke="rgb(255,255,255)" stroke-linejoin="miter" stroke-linecap="square" stroke-miterlimit="3"/><path d=" M 141 170.111 L 121 181.658 L 121 158.564 L 141 147.017 L 141 170.111 Z " fill="rgb(157,42,42)" vector-effect="non-scaling-stroke" stroke-width="1" stroke="rgb(255,255,255)" stroke-linejoin="miter" stroke-linecap="square" stroke-miterlimit="3"/></g><g id="Group"><path d=" M 261 285.581 L 241 274.034 L 221 285.581 L 241 297.128 L 261 285.581 Z " fill="rgb(255,79,79)" vector-effect="non-scaling-stroke" stroke-width="1" stroke="rgb(255,255,255)" stroke-linejoin="miter" stroke-linecap="square" stroke-miterlimit="3"/><path d=" M 241 320.222 L 221 308.675 L 221 285.581 L 241 297.128 L 241 320.222 Z " fill="rgb(200,63,63)" vector-effect="non-scaling-stroke" stroke-width="1" stroke="rgb(255,255,255)" stroke-linejoin="miter" stroke-linecap="square" stroke-miterlimit="3"/><path d=" M 261 308.675 L 241 320.222 L 241 297.128 L 261 285.581 L 261 308.675 Z " fill="rgb(157,42,42)" vector-effect="non-scaling-stroke" stroke-width="1" stroke="rgb(255,255,255)" stroke-linejoin="miter" stroke-linecap="square" stroke-miterlimit="3"/></g><g id="Group"><path d=" M 261 262.487 L 241 250.94 L 221 262.487 L 241 274.034 L 261 262.487 Z " fill="rgb(255,79,79)" vector-effect="non-scaling-stroke" stroke-width="1" stroke="rgb(255,255,255)" stroke-linejoin="miter" stroke-linecap="square" stroke-miterlimit="3"/><path d=" M 241 297.128 L 221 285.581 L 221 262.487 L 241 274.034 L 241 297.128 Z " fill="rgb(200,63,63)" vector-effect="non-scaling-stroke" stroke-width="1" stroke="rgb(255,255,255)" stroke-linejoin="miter" stroke-linecap="square" stroke-miterlimit="3"/><path d=" M 261 285.581 L 241 297.128 L 241 274.034 L 261 262.487 L 261 285.581 Z " fill="rgb(157,42,42)" vector-effect="non-scaling-stroke" stroke-width="1" stroke="rgb(255,255,255)" stroke-linejoin="miter" stroke-linecap="square" stroke-miterlimit="3"/></g><g id="Group"><path d=" M 301 285.581 L 281 274.034 L 261 285.581 L 281 297.128 L 301 285.581 Z " fill="rgb(255,79,79)" vector-effect="non-scaling-stroke" stroke-width="1" stroke="rgb(255,255,255)" stroke-linejoin="miter" stroke-linecap="square" stroke-miterlimit="3"/><path d=" M 281 320.222 L 261 308.675 L 261 285.581 L 281 297.128 L 281 320.222 Z " fill="rgb(200,63,63)" vector-effect="non-scaling-stroke" stroke-width="1" stroke="rgb(255,255,255)" stroke-linejoin="miter" stroke-linecap="square" stroke-miterlimit="3"/><path d=" M 301 308.675 L 281 320.222 L 281 297.128 L 301 285.581 L 301 308.675 Z " fill="rgb(157,42,42)" vector-effect="non-scaling-stroke" stroke-width="1" stroke="rgb(255,255,255)" stroke-linejoin="miter" stroke-linecap="square" stroke-miterlimit="3"/></g><g id="Group"><path d=" M 301 262.487 L 281 250.94 L 261 262.487 L 281 274.034 L 301 262.487 Z " fill="rgb(255,79,79)" vector-effect="non-scaling-stroke" stroke-width="1" stroke="rgb(255,255,255)" stroke-linejoin="miter" stroke-linecap="square" stroke-miterlimit="3"/><path d=" M 281 297.128 L 261 285.581 L 261 262.487 L 281 274.034 L 281 297.128 Z " fill="rgb(200,63,63)" vector-effect="non-scaling-stroke" stroke-width="1" stroke="rgb(255,255,255)" stroke-linejoin="miter" stroke-linecap="square" stroke-miterlimit="3"/><path d=" M 301 285.581 L 281 297.128 L 281 274.034 L 301 262.487 L 301 285.581 Z " fill="rgb(157,42,42)" vector-effect="non-scaling-stroke" stroke-width="1" stroke="rgb(255,255,255)" stroke-linejoin="miter" stroke-linecap="square" stroke-miterlimit="3"/></g><g id="Group"><path d=" M 301 239.393 L 281 227.846 L 261 239.393 L 281 250.94 L 301 239.393 Z " fill="rgb(255,79,79)" vector-effect="non-scaling-stroke" stroke-width="1" stroke="rgb(255,255,255)" stroke-linejoin="miter" stroke-linecap="square" stroke-miterlimit="3"/><path d=" M 281 274.034 L 261 262.487 L 261 239.393 L 281 250.94 L 281 274.034 Z " fill="rgb(200,63,63)" vector-effect="non-scaling-stroke" stroke-width="1" stroke="rgb(255,255,255)" stroke-linejoin="miter" stroke-linecap="square" stroke-miterlimit="3"/><path d=" M 301 262.487 L 281 274.034 L 281 250.94 L 301 239.393 L 301 262.487 Z " fill="rgb(157,42,42)" vector-effect="non-scaling-stroke" stroke-width="1" stroke="rgb(255,255,255)" stroke-linejoin="miter" stroke-linecap="square" stroke-miterlimit="3"/></g><g id="Group"><path d=" M 301 216.299 L 281 204.752 L 261 216.299 L 281 227.846 L 301 216.299 Z " fill="rgb(255,79,79)" vector-effect="non-scaling-stroke" stroke-width="1" stroke="rgb(255,255,255)" stroke-linejoin="miter" stroke-linecap="square" stroke-miterlimit="3"/><path d=" M 281 250.94 L 261 239.393 L 261 216.299 L 281 227.846 L 281 250.94 Z " fill="rgb(200,63,63)" vector-effect="non-scaling-stroke" stroke-width="1" stroke="rgb(255,255,255)" stroke-linejoin="miter" stroke-linecap="square" stroke-miterlimit="3"/><path d=" M 301 239.393 L 281 250.94 L 281 227.846 L 301 216.299 L 301 239.393 Z " fill="rgb(157,42,42)" vector-effect="non-scaling-stroke" stroke-width="1" stroke="rgb(255,255,255)" stroke-linejoin="miter" stroke-linecap="square" stroke-miterlimit="3"/></g><g id="Group"><path d=" M 341 285.581 L 321 274.034 L 301 285.581 L 321 297.128 L 341 285.581 Z " fill="rgb(255,79,79)" vector-effect="non-scaling-stroke" stroke-width="1" stroke="rgb(255,255,255)" stroke-linejoin="miter" stroke-linecap="square" stroke-miterlimit="3"/><path d=" M 321 320.222 L 301 308.675 L 301 285.581 L 321 297.128 L 321 320.222 Z " fill="rgb(200,63,63)" vector-effect="non-scaling-stroke" stroke-width="1" stroke="rgb(255,255,255)" stroke-linejoin="miter" stroke-linecap="square" stroke-miterlimit="3"/><path d=" M 341 308.675 L 321 320.222 L 321 297.128 L 341 285.581 L 341 308.675 Z " fill="rgb(157,42,42)" vector-effect="non-scaling-stroke" stroke-width="1" stroke="rgb(255,255,255)" stroke-linejoin="miter" stroke-linecap="square" stroke-miterlimit="3"/></g></g></g></svg>