<?xml version="1.0" standalone="no"?><!-- Generator: Gravit.io --><svg xmlns="http://www.w3.org/2000/svg" xmlns:xlink="http://www.w3.org/1999/xlink" style="isolation:isolate" viewBox="0 0 183 153.111" width="183" height="153.111"><defs><clipPath id="_clipPath_V7IM0gjPNb5fdJ1dO7wSZCy51cWfhkcr"><rect width="183" height="153.111"/></clipPath></defs><g clip-path="url(#_clipPath_V7IM0gjPNb5fdJ1dO7wSZCy51cWfhkcr)"><clipPath id="_clipPath_OjsFtWjbti6XYj4hz7ItfpEpijn03xpB"><rect x="0" y="0" width="183" height="153.111" transform="matrix(1,0,0,1,0,0)" fill="rgb(255,255,255)"/></clipPath><g clip-path="url(#_clipPath_OjsFtWjbti6XYj4hz7ItfpEpijn03xpB)"><g id="Group"><g id="Group"><path d=" M 181.5 47.688 L 161.5 36.141 L 141.5 47.688 L 161.5 59.235 L 181.5 47.688 L 181.5 47.688 Z " fill="rgb(255,0,0)" vector-effect="non-scaling-stroke" stroke-width="1" stroke="rgb(255,255,255)" stroke-opacity="10000" stroke-linejoin="miter" stroke-linecap="square" stroke-miterlimit="3"/><path d=" M 161.5 82.329 L 141.5 70.782 L 141.5 47.688 L 161.5 59.235 L 161.5 82.329 L 161.5 82.329 Z " fill="rgb(134,2,2)" vector-effect="non-scaling-stroke" stroke-width="1" stroke="rgb(255,255,255)" stroke-opacity="10000" stroke-linejoin="miter" stroke-linecap="square" stroke-miterlimit="3"/><path d=" M 181.5 70.782 L 161.5 82.329 L 161.5 59.235 L 181.5 47.688 L 181.5 70.782 L 181.5 70.782 Z " fill="rgb(191,0,0)" vector-effect="non-scaling-stroke" stroke-width="1" stroke="rgb(255,255,255)" stroke-opacity="10000" stroke-linejoin="miter" stroke-linecap="square" stroke-miterlimit="3"/></g><g id="Group"><path d=" M 161.5 13.047 L 141.5 1.5 L 121.5 13.047 L 141.5 24.594 L 161.5 13.047 L 161.5 13.047 Z " fill="rgb(255,0,0)" vector-effect="non-scaling-stroke" stroke-width="1" stroke="rgb(255,255,255)" stroke-opacity="10000" stroke-linejoin="miter" stroke-linecap="square" stroke-miterlimit="3"/><path d=" M 141.5 47.688 L 121.5 36.141 L 121.5 13.047 L 141.5 24.594 L 141.5 47.688 L 141.5 47.688 Z " fill="rgb(134,2,2)" vector-effect="non-scaling-stroke" stroke-width="1" stroke="rgb(255,255,255)" stroke-opacity="10000" stroke-linejoin="miter" stroke-linecap="square" stroke-miterlimit="3"/><path d=" M 161.5 36.141 L 141.5 47.688 L 141.5 24.594 L 161.5 13.047 L 161.5 36.141 L 161.5 36.141 Z " fill="rgb(191,0,0)" vector-effect="non-scaling-stroke" stroke-width="1" stroke="rgb(255,255,255)" stroke-opacity="10000" stroke-linejoin="miter" stroke-linecap="square" stroke-miterlimit="3"/></g><g id="Group"><path d=" M 121.5 13.047 L 101.5 1.5 L 81.5 13.047 L 101.5 24.594 L 121.5 13.047 L 121.5 13.047 Z " fill="rgb(255,0,0)" vector-effect="non-scaling-stroke" stroke-width="1" stroke="rgb(255,255,255)" stroke-opacity="10000" stroke-linejoin="miter" stroke-linecap="square" stroke-miterlimit="3"/><path d=" M 101.5 47.688 L 81.5 36.141 L 81.5 13.047 L 101.5 24.594 L 101.5 47.688 L 101.5 47.688 Z " fill="rgb(134,2,2)" vector-effect="non-scaling-stroke" stroke-width="1" stroke="rgb(255,255,255)" stroke-opacity="10000" stroke-linejoin="miter" stroke-linecap="square" stroke-miterlimit="3"/><path d=" M 121.5 36.141 L 101.5 47.688 L 101.5 24.594 L 121.5 13.047 L 121.5 36.141 L 121.5 36.141 Z " fill="rgb(191,0,0)" vector-effect="non-scaling-stroke" stroke-width="1" stroke="rgb(255,255,255)" stroke-opacity="10000" stroke-linejoin="miter" stroke-linecap="square" stroke-miterlimit="3"/></g><g id="Group"><path d=" M 81.5 13.047 L 61.5 1.5 L 41.5 13.047 L 61.5 24.594 L 81.5 13.047 L 81.5 13.047 Z " fill="rgb(255,0,0)" vector-effect="non-scaling-stroke" stroke-width="1" stroke="rgb(255,255,255)" stroke-opacity="10000" stroke-linejoin="miter" stroke-linecap="square" stroke-miterlimit="3"/><path d=" M 61.5 47.688 L 41.5 36.141 L 41.5 13.047 L 61.5 24.594 L 61.5 47.688 L 61.5 47.688 Z " fill="rgb(134,2,2)" vector-effect="non-scaling-stroke" stroke-width="1" stroke="rgb(255,255,255)" stroke-opacity="10000" stroke-linejoin="miter" stroke-linecap="square" stroke-miterlimit="3"/><path d=" M 81.5 36.141 L 61.5 47.688 L 61.5 24.594 L 81.5 13.047 L 81.5 36.141 L 81.5 36.141 Z " fill="rgb(191,0,0)" vector-effect="non-scaling-stroke" stroke-width="1" stroke="rgb(255,255,255)" stroke-opacity="10000" stroke-linejoin="miter" stroke-linecap="square" stroke-miterlimit="3"/></g><g id="Group"><path d=" M 141.5 47.688 L 121.5 36.141 L 101.5 47.688 L 121.5 59.235 L 141.5 47.688 L 141.5 47.688 Z " fill="rgb(255,0,0)" vector-effect="non-scaling-stroke" stroke-width="1" stroke="rgb(255,255,255)" stroke-opacity="10000" stroke-linejoin="miter" stroke-linecap="square" stroke-miterlimit="3"/><path d=" M 121.5 82.329 L 101.5 70.782 L 101.5 47.688 L 121.5 59.235 L 121.5 82.329 L 121.5 82.329 Z " fill="rgb(134,2,2)" vector-effect="non-scaling-stroke" stroke-width="1" stroke="rgb(255,255,255)" stroke-opacity="10000" stroke-linejoin="miter" stroke-linecap="square" stroke-miterlimit="3"/><path d=" M 141.5 70.782 L 121.5 82.329 L 121.5 59.235 L 141.5 47.688 L 141.5 70.782 L 141.5 70.782 Z " fill="rgb(191,0,0)" vector-effect="non-scaling-stroke" stroke-width="1" stroke="rgb(255,255,255)" stroke-opacity="10000" stroke-linejoin="miter" stroke-linecap="square" stroke-miterlimit="3"/></g><g id="Group"><path d=" M 101.5 47.688 L 81.5 36.141 L 61.5 47.688 L 81.5 59.235 L 101.5 47.688 L 101.5 47.688 Z " fill="rgb(255,0,0)" vector-effect="non-scaling-stroke" stroke-width="1" stroke="rgb(255,255,255)" stroke-opacity="10000" stroke-linejoin="miter" stroke-linecap="square" stroke-miterlimit="3"/><path d=" M 81.5 82.329 L 61.5 70.782 L 61.5 47.688 L 81.5 59.235 L 81.5 82.329 L 81.5 82.329 Z " fill="rgb(134,2,2)" vector-effect="non-scaling-stroke" stroke-width="1" stroke="rgb(255,255,255)" stroke-opacity="10000" stroke-linejoin="miter" stroke-linecap="square" stroke-miterlimit="3"/><path d=" M 101.5 70.782 L 81.5 82.329 L 81.5 59.235 L 101.5 47.688 L 101.5 70.782 L 101.5 70.782 Z " fill="rgb(191,0,0)" vector-effect="non-scaling-stroke" stroke-width="1" stroke="rgb(255,255,255)" stroke-opacity="10000" stroke-linejoin="miter" stroke-linecap="square" stroke-miterlimit="3"/></g><g id="Group"><path d=" M 61.5 47.688 L 41.5 36.141 L 21.5 47.688 L 41.5 59.235 L 61.5 47.688 L 61.5 47.688 Z " fill="rgb(255,0,0)" vector-effect="non-scaling-stroke" stroke-width="1" stroke="rgb(255,255,255)" stroke-opacity="10000" stroke-linejoin="miter" stroke-linecap="square" stroke-miterlimit="3"/><path d=" M 41.5 82.329 L 21.5 70.782 L 21.5 47.688 L 41.5 59.235 L 41.5 82.329 L 41.5 82.329 Z " fill="rgb(134,2,2)" vector-effect="non-scaling-stroke" stroke-width="1" stroke="rgb(255,255,255)" stroke-opacity="10000" stroke-linejoin="miter" stroke-linecap="square" stroke-miterlimit="3"/><path d=" M 61.5 70.782 L 41.5 82.329 L 41.5 59.235 L 61.5 47.688 L 61.5 70.782 L 61.5 70.782 Z " fill="rgb(191,0,0)" vector-effect="non-scaling-stroke" stroke-width="1" stroke="rgb(255,255,255)" stroke-opacity="10000" stroke-linejoin="miter" stroke-linecap="square" stroke-miterlimit="3"/></g><g id="Group"><path d=" M 161.5 82.329 L 141.5 70.782 L 121.5 82.329 L 141.5 93.876 L 161.5 82.329 L 161.5 82.329 Z " fill="rgb(255,0,0)" vector-effect="non-scaling-stroke" stroke-width="1" stroke="rgb(255,255,255)" stroke-opacity="10000" stroke-linejoin="miter" stroke-linecap="square" stroke-miterlimit="3"/><path d=" M 141.5 116.97 L 121.5 105.423 L 121.5 82.329 L 141.5 93.876 L 141.5 116.97 L 141.5 116.97 Z " fill="rgb(134,2,2)" vector-effect="non-scaling-stroke" stroke-width="1" stroke="rgb(255,255,255)" stroke-opacity="10000" stroke-linejoin="miter" stroke-linecap="square" stroke-miterlimit="3"/><path d=" M 161.5 105.423 L 141.5 116.97 L 141.5 93.876 L 161.5 82.329 L 161.5 105.423 L 161.5 105.423 Z " fill="rgb(191,0,0)" vector-effect="non-scaling-stroke" stroke-width="1" stroke="rgb(255,255,255)" stroke-opacity="10000" stroke-linejoin="miter" stroke-linecap="square" stroke-miterlimit="3"/></g><g id="Group"><path d=" M 121.5 82.329 L 101.5 70.782 L 81.5 82.329 L 101.5 93.876 L 121.5 82.329 L 121.5 82.329 Z " fill="rgb(255,0,0)" vector-effect="non-scaling-stroke" stroke-width="1" stroke="rgb(255,255,255)" stroke-opacity="10000" stroke-linejoin="miter" stroke-linecap="square" stroke-miterlimit="3"/><path d=" M 101.5 116.97 L 81.5 105.423 L 81.5 82.329 L 101.5 93.876 L 101.5 116.97 L 101.5 116.97 Z " fill="rgb(134,2,2)" vector-effect="non-scaling-stroke" stroke-width="1" stroke="rgb(255,255,255)" stroke-opacity="10000" stroke-linejoin="miter" stroke-linecap="square" stroke-miterlimit="3"/><path d=" M 121.5 105.423 L 101.5 116.97 L 101.5 93.876 L 121.5 82.329 L 121.5 105.423 L 121.5 105.423 Z " fill="rgb(191,0,0)" vector-effect="non-scaling-stroke" stroke-width="1" stroke="rgb(255,255,255)" stroke-opacity="10000" stroke-linejoin="miter" stroke-linecap="square" stroke-miterlimit="3"/></g><g id="Group"><path d=" M 81.5 82.329 L 61.5 70.782 L 41.5 82.329 L 61.5 93.876 L 81.5 82.329 L 81.5 82.329 Z " fill="rgb(255,0,0)" vector-effect="non-scaling-stroke" stroke-width="1" stroke="rgb(255,255,255)" stroke-opacity="10000" stroke-linejoin="miter" stroke-linecap="square" stroke-miterlimit="3"/><path d=" M 61.5 116.97 L 41.5 105.423 L 41.5 82.329 L 61.5 93.876 L 61.5 116.97 L 61.5 116.97 Z " fill="rgb(134,2,2)" vector-effect="non-scaling-stroke" stroke-width="1" stroke="rgb(255,255,255)" stroke-opacity="10000" stroke-linejoin="miter" stroke-linecap="square" stroke-miterlimit="3"/><path d=" M 81.5 105.423 L 61.5 116.97 L 61.5 93.876 L 81.5 82.329 L 81.5 105.423 L 81.5 105.423 Z " fill="rgb(191,0,0)" vector-effect="non-scaling-stroke" stroke-width="1" stroke="rgb(255,255,255)" stroke-opacity="10000" stroke-linejoin="miter" stroke-linecap="square" stroke-miterlimit="3"/></g><g id="Group"><path d=" M 41.5 82.329 L 21.5 70.782 L 1.5 82.329 L 21.5 93.876 L 41.5 82.329 L 41.5 82.329 Z " fill="rgb(255,0,0)" vector-effect="non-scaling-stroke" stroke-width="1" stroke="rgb(255,255,255)" stroke-opacity="10000" stroke-linejoin="miter" stroke-linecap="square" stroke-miterlimit="3"/><path d=" M 21.5 116.97 L 1.5 105.423 L 1.5 82.329 L 21.5 93.876 L 21.5 116.97 L 21.5 116.97 Z " fill="rgb(134,2,2)" vector-effect="non-scaling-stroke" stroke-width="1" stroke="rgb(255,255,255)" stroke-opacity="10000" stroke-linejoin="miter" stroke-linecap="square" stroke-miterlimit="3"/><path d=" M 41.5 105.423 L 21.5 116.97 L 21.5 93.876 L 41.5 82.329 L 41.5 105.423 L 41.5 105.423 Z " fill="rgb(191,0,0)" vector-effect="non-scaling-stroke" stroke-width="1" stroke="rgb(255,255,255)" stroke-opacity="10000" stroke-linejoin="miter" stroke-linecap="square" stroke-miterlimit="3"/></g><g id="Group"><path d=" M 141.5 116.97 L 121.5 105.423 L 101.5 116.97 L 121.5 128.517 L 141.5 116.97 L 141.5 116.97 Z " fill="rgb(255,0,0)" vector-effect="non-scaling-stroke" stroke-width="1" stroke="rgb(255,255,255)" stroke-opacity="10000" stroke-linejoin="miter" stroke-linecap="square" stroke-miterlimit="3"/><path d=" M 121.5 151.611 L 101.5 140.064 L 101.5 116.97 L 121.5 128.517 L 121.5 151.611 L 121.5 151.611 Z " fill="rgb(134,2,2)" vector-effect="non-scaling-stroke" stroke-width="1" stroke="rgb(255,255,255)" stroke-opacity="10000" stroke-linejoin="miter" stroke-linecap="square" stroke-miterlimit="3"/><path d=" M 141.5 140.064 L 121.5 151.611 L 121.5 128.517 L 141.5 116.97 L 141.5 140.064 L 141.5 140.064 Z " fill="rgb(191,0,0)" vector-effect="non-scaling-stroke" stroke-width="1" stroke="rgb(255,255,255)" stroke-opacity="10000" stroke-linejoin="miter" stroke-linecap="square" stroke-miterlimit="3"/></g><g id="Group"><path d=" M 101.5 116.97 L 81.5 105.423 L 61.5 116.97 L 81.5 128.517 L 101.5 116.97 L 101.5 116.97 Z " fill="rgb(255,0,0)" vector-effect="non-scaling-stroke" stroke-width="1" stroke="rgb(255,255,255)" stroke-opacity="10000" stroke-linejoin="miter" stroke-linecap="square" stroke-miterlimit="3"/><path d=" M 81.5 151.611 L 61.5 140.064 L 61.5 116.97 L 81.5 128.517 L 81.5 151.611 L 81.5 151.611 Z " fill="rgb(134,2,2)" vector-effect="non-scaling-stroke" stroke-width="1" stroke="rgb(255,255,255)" stroke-opacity="10000" stroke-linejoin="miter" stroke-linecap="square" stroke-miterlimit="3"/><path d=" M 101.5 140.064 L 81.5 151.611 L 81.5 128.517 L 101.5 116.97 L 101.5 140.064 L 101.5 140.064 Z " fill="rgb(191,0,0)" vector-effect="non-scaling-stroke" stroke-width="1" stroke="rgb(255,255,255)" stroke-opacity="10000" stroke-linejoin="miter" stroke-linecap="square" stroke-miterlimit="3"/></g><g id="Group"><path d=" M 61.5 116.97 L 41.5 105.423 L 21.5 116.97 L 41.5 128.517 L 61.5 116.97 L 61.5 116.97 Z " fill="rgb(255,0,0)" vector-effect="non-scaling-stroke" stroke-width="1" stroke="rgb(255,255,255)" stroke-opacity="10000" stroke-linejoin="miter" stroke-linecap="square" stroke-miterlimit="3"/><path d=" M 41.5 151.611 L 21.5 140.064 L 21.5 116.97 L 41.5 128.517 L 41.5 151.611 L 41.5 151.611 Z " fill="rgb(134,2,2)" vector-effect="non-scaling-stroke" stroke-width="1" stroke="rgb(255,255,255)" stroke-opacity="10000" stroke-linejoin="miter" stroke-linecap="square" stroke-miterlimit="3"/><path d=" M 61.5 140.064 L 41.5 151.611 L 41.5 128.517 L 61.5 116.97 L 61.5 140.064 L 61.5 140.064 Z " fill="rgb(191,0,0)" vector-effect="non-scaling-stroke" stroke-width="1" stroke="rgb(255,255,255)" stroke-opacity="10000" stroke-linejoin="miter" stroke-linecap="square" stroke-miterlimit="3"/></g></g></g><path d=" M 40 75.056 C 40 46.377 63.283 23.094 91.962 23.094 C 120.64 23.094 143.923 46.377 143.923 75.056 C 143.923 103.734 120.64 127.017 91.962 127.017 C 63.283 127.017 40 103.734 40 75.056 Z " fill="rgb(235,235,235)" vector-effect="non-scaling-stroke" stroke-width="1" stroke="rgb(255,0,0)" stroke-linejoin="miter" stroke-linecap="square" stroke-miterlimit="3"/></g></svg>