<?xml version="1.0" standalone="no"?><!-- Generator: Gravit.io --><svg xmlns="http://www.w3.org/2000/svg" xmlns:xlink="http://www.w3.org/1999/xlink" style="isolation:isolate" viewBox="0 0 183 151.611" width="183" height="151.611"><defs><clipPath id="_clipPath_xAcmcAurly1G9WBWh7hIHxOE69PkL5tD"><rect width="183" height="151.611"/></clipPath></defs><g clip-path="url(#_clipPath_xAcmcAurly1G9WBWh7hIHxOE69PkL5tD)"><g id="Group"><path d=" M 161.5 80.829 L 141.5 69.282 L 121.5 80.829 L 141.5 92.376 L 161.5 80.829 Z " fill="rgb(44,117,234)" vector-effect="non-scaling-stroke" stroke-width="1" stroke="rgb(255,255,255)" stroke-opacity="100" stroke-linejoin="miter" stroke-linecap="square" stroke-miterlimit="3"/><path d=" M 141.5 115.47 L 121.5 103.923 L 121.5 80.829 L 141.5 92.376 L 141.5 115.47 Z " fill="rgb(45,84,147)" vector-effect="non-scaling-stroke" stroke-width="1" stroke="rgb(255,255,255)" stroke-opacity="100" stroke-linejoin="miter" stroke-linecap="square" stroke-miterlimit="3"/><path d=" M 161.5 103.923 L 141.5 115.47 L 141.5 92.376 L 161.5 80.829 L 161.5 103.923 Z " fill="rgb(56,106,185)" vector-effect="non-scaling-stroke" stroke-width="1" stroke="rgb(255,255,255)" stroke-opacity="100" stroke-linejoin="miter" stroke-linecap="square" stroke-miterlimit="3"/></g><g id="Group"><path d=" M 181.5 47.688 L 161.5 36.141 L 141.5 47.688 L 161.5 59.235 L 181.5 47.688 Z " fill="rgb(44,117,234)" vector-effect="non-scaling-stroke" stroke-width="1" stroke="rgb(255,255,255)" stroke-opacity="100" stroke-linejoin="miter" stroke-linecap="square" stroke-miterlimit="3"/><path d=" M 161.5 82.329 L 141.5 70.782 L 141.5 47.688 L 161.5 59.235 L 161.5 82.329 Z " fill="rgb(45,84,147)" vector-effect="non-scaling-stroke" stroke-width="1" stroke="rgb(255,255,255)" stroke-opacity="100" stroke-linejoin="miter" stroke-linecap="square" stroke-miterlimit="3"/><path d=" M 181.5 70.782 L 161.5 82.329 L 161.5 59.235 L 181.5 47.688 L 181.5 70.782 Z " fill="rgb(56,106,185)" vector-effect="non-scaling-stroke" stroke-width="1" stroke="rgb(255,255,255)" stroke-opacity="100" stroke-linejoin="miter" stroke-linecap="square" stroke-miterlimit="3"/></g><g id="Group"><path d=" M 161.5 13.047 L 141.5 1.5 L 121.5 13.047 L 141.5 24.594 L 161.5 13.047 Z " fill="rgb(44,117,234)" vector-effect="non-scaling-stroke" stroke-width="1" stroke="rgb(255,255,255)" stroke-opacity="100" stroke-linejoin="miter" stroke-linecap="square" stroke-miterlimit="3"/><path d=" M 141.5 47.688 L 121.5 36.141 L 121.5 13.047 L 141.5 24.594 L 141.5 47.688 Z " fill="rgb(45,84,147)" vector-effect="non-scaling-stroke" stroke-width="1" stroke="rgb(255,255,255)" stroke-opacity="100" stroke-linejoin="miter" stroke-linecap="square" stroke-miterlimit="3"/><path d=" M 161.5 36.141 L 141.5 47.688 L 141.5 24.594 L 161.5 13.047 L 161.5 36.141 Z " fill="rgb(56,106,185)" vector-effect="non-scaling-stroke" stroke-width="1" stroke="rgb(255,255,255)" stroke-opacity="100" stroke-linejoin="miter" stroke-linecap="square" stroke-miterlimit="3"/></g><g id="Group"><path d=" M 141.5 47.688 L 121.5 36.141 L 101.5 47.688 L 121.5 59.235 L 141.5 47.688 Z " fill="rgb(44,117,234)" vector-effect="non-scaling-stroke" stroke-width="1" stroke="rgb(255,255,255)" stroke-opacity="100" stroke-linejoin="miter" stroke-linecap="square" stroke-miterlimit="3"/><path d=" M 121.5 82.329 L 101.5 70.782 L 101.5 47.688 L 121.5 59.235 L 121.5 82.329 Z " fill="rgb(45,84,147)" vector-effect="non-scaling-stroke" stroke-width="1" stroke="rgb(255,255,255)" stroke-opacity="100" stroke-linejoin="miter" stroke-linecap="square" stroke-miterlimit="3"/><path d=" M 141.5 70.782 L 121.5 82.329 L 121.5 59.235 L 141.5 47.688 L 141.5 70.782 Z " fill="rgb(56,106,185)" vector-effect="non-scaling-stroke" stroke-width="1" stroke="rgb(255,255,255)" stroke-opacity="100" stroke-linejoin="miter" stroke-linecap="square" stroke-miterlimit="3"/></g><g id="Group"><path d=" M 121.5 13.047 L 101.5 1.5 L 81.5 13.047 L 101.5 24.594 L 121.5 13.047 Z " fill="rgb(44,117,234)" vector-effect="non-scaling-stroke" stroke-width="1" stroke="rgb(255,255,255)" stroke-opacity="100" stroke-linejoin="miter" stroke-linecap="square" stroke-miterlimit="3"/><path d=" M 101.5 47.688 L 81.5 36.141 L 81.5 13.047 L 101.5 24.594 L 101.5 47.688 Z " fill="rgb(45,84,147)" vector-effect="non-scaling-stroke" stroke-width="1" stroke="rgb(255,255,255)" stroke-opacity="100" stroke-linejoin="miter" stroke-linecap="square" stroke-miterlimit="3"/><path d=" M 121.5 36.141 L 101.5 47.688 L 101.5 24.594 L 121.5 13.047 L 121.5 36.141 Z " fill="rgb(56,106,185)" vector-effect="non-scaling-stroke" stroke-width="1" stroke="rgb(255,255,255)" stroke-opacity="100" stroke-linejoin="miter" stroke-linecap="square" stroke-miterlimit="3"/></g><g id="Group"><path d=" M 81.5 13.047 L 61.5 1.5 L 41.5 13.047 L 61.5 24.594 L 81.5 13.047 Z " fill="rgb(44,117,234)" vector-effect="non-scaling-stroke" stroke-width="1" stroke="rgb(255,255,255)" stroke-opacity="100" stroke-linejoin="miter" stroke-linecap="square" stroke-miterlimit="3"/><path d=" M 61.5 47.688 L 41.5 36.141 L 41.5 13.047 L 61.5 24.594 L 61.5 47.688 Z " fill="rgb(45,84,147)" vector-effect="non-scaling-stroke" stroke-width="1" stroke="rgb(255,255,255)" stroke-opacity="100" stroke-linejoin="miter" stroke-linecap="square" stroke-miterlimit="3"/><path d=" M 81.5 36.141 L 61.5 47.688 L 61.5 24.594 L 81.5 13.047 L 81.5 36.141 Z " fill="rgb(56,106,185)" vector-effect="non-scaling-stroke" stroke-width="1" stroke="rgb(255,255,255)" stroke-opacity="100" stroke-linejoin="miter" stroke-linecap="square" stroke-miterlimit="3"/></g><g id="Group"><path d=" M 121.5 80.829 L 101.5 69.282 L 81.5 80.829 L 101.5 92.376 L 121.5 80.829 Z " fill="rgb(44,117,234)" vector-effect="non-scaling-stroke" stroke-width="1" stroke="rgb(255,255,255)" stroke-opacity="100" stroke-linejoin="miter" stroke-linecap="square" stroke-miterlimit="3"/><path d=" M 101.5 115.47 L 81.5 103.923 L 81.5 80.829 L 101.5 92.376 L 101.5 115.47 Z " fill="rgb(45,84,147)" vector-effect="non-scaling-stroke" stroke-width="1" stroke="rgb(255,255,255)" stroke-opacity="100" stroke-linejoin="miter" stroke-linecap="square" stroke-miterlimit="3"/><path d=" M 121.5 103.923 L 101.5 115.47 L 101.5 92.376 L 121.5 80.829 L 121.5 103.923 Z " fill="rgb(56,106,185)" vector-effect="non-scaling-stroke" stroke-width="1" stroke="rgb(255,255,255)" stroke-opacity="100" stroke-linejoin="miter" stroke-linecap="square" stroke-miterlimit="3"/></g><g id="Group"><path d=" M 101.5 46.188 L 81.5 34.641 L 61.5 46.188 L 81.5 57.735 L 101.5 46.188 Z " fill="rgb(44,117,234)" vector-effect="non-scaling-stroke" stroke-width="1" stroke="rgb(255,255,255)" stroke-opacity="100" stroke-linejoin="miter" stroke-linecap="square" stroke-miterlimit="3"/><path d=" M 81.5 80.829 L 61.5 69.282 L 61.5 46.188 L 81.5 57.735 L 81.5 80.829 Z " fill="rgb(45,84,147)" vector-effect="non-scaling-stroke" stroke-width="1" stroke="rgb(255,255,255)" stroke-opacity="100" stroke-linejoin="miter" stroke-linecap="square" stroke-miterlimit="3"/><path d=" M 101.5 69.282 L 81.5 80.829 L 81.5 57.735 L 101.5 46.188 L 101.5 69.282 Z " fill="rgb(56,106,185)" vector-effect="non-scaling-stroke" stroke-width="1" stroke="rgb(255,255,255)" stroke-opacity="100" stroke-linejoin="miter" stroke-linecap="square" stroke-miterlimit="3"/></g><g id="Group"><path d=" M 141.5 115.47 L 121.5 103.923 L 101.5 115.47 L 121.5 127.017 L 141.5 115.47 Z " fill="rgb(44,117,234)" vector-effect="non-scaling-stroke" stroke-width="1" stroke="rgb(255,255,255)" stroke-opacity="100" stroke-linejoin="miter" stroke-linecap="square" stroke-miterlimit="3"/><path d=" M 121.5 150.111 L 101.5 138.564 L 101.5 115.47 L 121.5 127.017 L 121.5 150.111 Z " fill="rgb(45,84,147)" vector-effect="non-scaling-stroke" stroke-width="1" stroke="rgb(255,255,255)" stroke-opacity="100" stroke-linejoin="miter" stroke-linecap="square" stroke-miterlimit="3"/><path d=" M 141.5 138.564 L 121.5 150.111 L 121.5 127.017 L 141.5 115.47 L 141.5 138.564 Z " fill="rgb(56,106,185)" vector-effect="non-scaling-stroke" stroke-width="1" stroke="rgb(255,255,255)" stroke-opacity="100" stroke-linejoin="miter" stroke-linecap="square" stroke-miterlimit="3"/></g><g id="Group"><path d=" M 61.5 46.188 L 41.5 34.641 L 21.5 46.188 L 41.5 57.735 L 61.5 46.188 Z " fill="rgb(44,117,234)" vector-effect="non-scaling-stroke" stroke-width="1" stroke="rgb(255,255,255)" stroke-opacity="100" stroke-linejoin="miter" stroke-linecap="square" stroke-miterlimit="3"/><path d=" M 41.5 80.829 L 21.5 69.282 L 21.5 46.188 L 41.5 57.735 L 41.5 80.829 Z " fill="rgb(45,84,147)" vector-effect="non-scaling-stroke" stroke-width="1" stroke="rgb(255,255,255)" stroke-opacity="100" stroke-linejoin="miter" stroke-linecap="square" stroke-miterlimit="3"/><path d=" M 61.5 69.282 L 41.5 80.829 L 41.5 57.735 L 61.5 46.188 L 61.5 69.282 Z " fill="rgb(56,106,185)" vector-effect="non-scaling-stroke" stroke-width="1" stroke="rgb(255,255,255)" stroke-opacity="100" stroke-linejoin="miter" stroke-linecap="square" stroke-miterlimit="3"/></g><g id="Group"><path d=" M 81.5 80.829 L 61.5 69.282 L 41.5 80.829 L 61.5 92.376 L 81.5 80.829 Z " fill="rgb(44,117,234)" vector-effect="non-scaling-stroke" stroke-width="1" stroke="rgb(255,255,255)" stroke-opacity="100" stroke-linejoin="miter" stroke-linecap="square" stroke-miterlimit="3"/><path d=" M 61.5 115.47 L 41.5 103.923 L 41.5 80.829 L 61.5 92.376 L 61.5 115.47 Z " fill="rgb(45,84,147)" vector-effect="non-scaling-stroke" stroke-width="1" stroke="rgb(255,255,255)" stroke-opacity="100" stroke-linejoin="miter" stroke-linecap="square" stroke-miterlimit="3"/><path d=" M 81.5 103.923 L 61.5 115.47 L 61.5 92.376 L 81.5 80.829 L 81.5 103.923 Z " fill="rgb(56,106,185)" vector-effect="non-scaling-stroke" stroke-width="1" stroke="rgb(255,255,255)" stroke-opacity="100" stroke-linejoin="miter" stroke-linecap="square" stroke-miterlimit="3"/></g><g id="Group"><path d=" M 101.5 115.47 L 81.5 103.923 L 61.5 115.47 L 81.5 127.017 L 101.5 115.47 Z " fill="rgb(44,117,234)" vector-effect="non-scaling-stroke" stroke-width="1" stroke="rgb(255,255,255)" stroke-opacity="100" stroke-linejoin="miter" stroke-linecap="square" stroke-miterlimit="3"/><path d=" M 81.5 150.111 L 61.5 138.564 L 61.5 115.47 L 81.5 127.017 L 81.5 150.111 Z " fill="rgb(45,84,147)" vector-effect="non-scaling-stroke" stroke-width="1" stroke="rgb(255,255,255)" stroke-opacity="100" stroke-linejoin="miter" stroke-linecap="square" stroke-miterlimit="3"/><path d=" M 101.5 138.564 L 81.5 150.111 L 81.5 127.017 L 101.5 115.47 L 101.5 138.564 Z " fill="rgb(56,106,185)" vector-effect="non-scaling-stroke" stroke-width="1" stroke="rgb(255,255,255)" stroke-opacity="100" stroke-linejoin="miter" stroke-linecap="square" stroke-miterlimit="3"/></g><g id="Group"><path d=" M 41.5 80.829 L 21.5 69.282 L 1.5 80.829 L 21.5 92.376 L 41.5 80.829 Z " fill="rgb(44,117,234)" vector-effect="non-scaling-stroke" stroke-width="1" stroke="rgb(255,255,255)" stroke-opacity="100" stroke-linejoin="miter" stroke-linecap="square" stroke-miterlimit="3"/><path d=" M 21.5 115.47 L 1.5 103.923 L 1.5 80.829 L 21.5 92.376 L 21.5 115.47 Z " fill="rgb(45,84,147)" vector-effect="non-scaling-stroke" stroke-width="1" stroke="rgb(255,255,255)" stroke-opacity="100" stroke-linejoin="miter" stroke-linecap="square" stroke-miterlimit="3"/><path d=" M 41.5 103.923 L 21.5 115.47 L 21.5 92.376 L 41.5 80.829 L 41.5 103.923 Z " fill="rgb(56,106,185)" vector-effect="non-scaling-stroke" stroke-width="1" stroke="rgb(255,255,255)" stroke-opacity="100" stroke-linejoin="miter" stroke-linecap="square" stroke-miterlimit="3"/></g><g id="Group"><path d=" M 61.5 115.47 L 41.5 103.923 L 21.5 115.47 L 41.5 127.017 L 61.5 115.47 Z " fill="rgb(44,117,234)" vector-effect="non-scaling-stroke" stroke-width="1" stroke="rgb(255,255,255)" stroke-opacity="100" stroke-linejoin="miter" stroke-linecap="square" stroke-miterlimit="3"/><path d=" M 41.5 150.111 L 21.5 138.564 L 21.5 115.47 L 41.5 127.017 L 41.5 150.111 Z " fill="rgb(45,84,147)" vector-effect="non-scaling-stroke" stroke-width="1" stroke="rgb(255,255,255)" stroke-opacity="100" stroke-linejoin="miter" stroke-linecap="square" stroke-miterlimit="3"/><path d=" M 61.5 138.564 L 41.5 150.111 L 41.5 127.017 L 61.5 115.47 L 61.5 138.564 Z " fill="rgb(56,106,185)" vector-effect="non-scaling-stroke" stroke-width="1" stroke="rgb(255,255,255)" stroke-opacity="100" stroke-linejoin="miter" stroke-linecap="square" stroke-miterlimit="3"/></g></g></svg>