<?xml version="1.0" standalone="no"?><!-- Generator: Gravit.io --><svg xmlns="http://www.w3.org/2000/svg" xmlns:xlink="http://www.w3.org/1999/xlink" style="isolation:isolate" viewBox="0 0 183 151.611" width="183" height="151.611"><defs><clipPath id="_clipPath_WGlc0BKk87AI9s2wG8v3GemMquAs5cSc"><rect width="183" height="151.611"/></clipPath></defs><g clip-path="url(#_clipPath_WGlc0BKk87AI9s2wG8v3GemMquAs5cSc)"><clipPath id="_clipPath_lO0cQMfFNUFeMntcygaoK7sc3YjNfTws"><rect x="0" y="0" width="183" height="151.611" transform="matrix(1,0,0,1,0,0)" fill="rgb(255,255,255)"/></clipPath><g clip-path="url(#_clipPath_lO0cQMfFNUFeMntcygaoK7sc3YjNfTws)"><g id="Group"><clipPath id="_clipPath_ZbrKkjN48Ag0lEqyRIHSZqPSWPcPgWVj"><rect x="0" y="0" width="183" height="151.611" transform="matrix(1,0,0,1,0,0)" fill="rgb(255,255,255)"/></clipPath><g clip-path="url(#_clipPath_ZbrKkjN48Ag0lEqyRIHSZqPSWPcPgWVj)"><g id="Group"><g id="Group"><g id="Group"><path d=" M 161.5 80.829 L 141.5 69.282 L 121.5 80.829 L 141.5 92.376 L 161.5 80.829 L 161.5 80.829 L 161.5 80.829 Z " fill="rgb(44,117,234)" vector-effect="non-scaling-stroke" stroke-width="1" stroke="rgb(255,255,255)" stroke-opacity="1000000" stroke-linejoin="miter" stroke-linecap="square" stroke-miterlimit="3"/><path d=" M 141.5 115.47 L 121.5 103.923 L 121.5 80.829 L 141.5 92.376 L 141.5 115.47 L 141.5 115.47 L 141.5 115.47 Z " fill="rgb(45,84,147)" vector-effect="non-scaling-stroke" stroke-width="1" stroke="rgb(255,255,255)" stroke-opacity="1000000" stroke-linejoin="miter" stroke-linecap="square" stroke-miterlimit="3"/><path d=" M 161.5 103.923 L 141.5 115.47 L 141.5 92.376 L 161.5 80.829 L 161.5 103.923 L 161.5 103.923 L 161.5 103.923 Z " fill="rgb(56,106,185)" vector-effect="non-scaling-stroke" stroke-width="1" stroke="rgb(255,255,255)" stroke-opacity="1000000" stroke-linejoin="miter" stroke-linecap="square" stroke-miterlimit="3"/></g><g id="Group"><path d=" M 181.5 47.688 L 161.5 36.141 L 141.5 47.688 L 161.5 59.235 L 181.5 47.688 L 181.5 47.688 L 181.5 47.688 Z " fill="rgb(44,117,234)" vector-effect="non-scaling-stroke" stroke-width="1" stroke="rgb(255,255,255)" stroke-opacity="1000000" stroke-linejoin="miter" stroke-linecap="square" stroke-miterlimit="3"/><path d=" M 161.5 82.329 L 141.5 70.782 L 141.5 47.688 L 161.5 59.235 L 161.5 82.329 L 161.5 82.329 L 161.5 82.329 Z " fill="rgb(45,84,147)" vector-effect="non-scaling-stroke" stroke-width="1" stroke="rgb(255,255,255)" stroke-opacity="1000000" stroke-linejoin="miter" stroke-linecap="square" stroke-miterlimit="3"/><path d=" M 181.5 70.782 L 161.5 82.329 L 161.5 59.235 L 181.5 47.688 L 181.5 70.782 L 181.5 70.782 L 181.5 70.782 Z " fill="rgb(56,106,185)" vector-effect="non-scaling-stroke" stroke-width="1" stroke="rgb(255,255,255)" stroke-opacity="1000000" stroke-linejoin="miter" stroke-linecap="square" stroke-miterlimit="3"/></g><g id="Group"><path d=" M 161.5 13.047 L 141.5 1.5 L 121.5 13.047 L 141.5 24.594 L 161.5 13.047 L 161.5 13.047 L 161.5 13.047 Z " fill="rgb(44,117,234)" vector-effect="non-scaling-stroke" stroke-width="1" stroke="rgb(255,255,255)" stroke-opacity="1000000" stroke-linejoin="miter" stroke-linecap="square" stroke-miterlimit="3"/><path d=" M 141.5 47.688 L 121.5 36.141 L 121.5 13.047 L 141.5 24.594 L 141.5 47.688 L 141.5 47.688 L 141.5 47.688 Z " fill="rgb(45,84,147)" vector-effect="non-scaling-stroke" stroke-width="1" stroke="rgb(255,255,255)" stroke-opacity="1000000" stroke-linejoin="miter" stroke-linecap="square" stroke-miterlimit="3"/><path d=" M 161.5 36.141 L 141.5 47.688 L 141.5 24.594 L 161.5 13.047 L 161.5 36.141 L 161.5 36.141 L 161.5 36.141 Z " fill="rgb(56,106,185)" vector-effect="non-scaling-stroke" stroke-width="1" stroke="rgb(255,255,255)" stroke-opacity="1000000" stroke-linejoin="miter" stroke-linecap="square" stroke-miterlimit="3"/></g><g id="Group"><path d=" M 141.5 47.688 L 121.5 36.141 L 101.5 47.688 L 121.5 59.235 L 141.5 47.688 L 141.5 47.688 L 141.5 47.688 Z " fill="rgb(44,117,234)" vector-effect="non-scaling-stroke" stroke-width="1" stroke="rgb(255,255,255)" stroke-opacity="1000000" stroke-linejoin="miter" stroke-linecap="square" stroke-miterlimit="3"/><path d=" M 121.5 82.329 L 101.5 70.782 L 101.5 47.688 L 121.5 59.235 L 121.5 82.329 L 121.5 82.329 L 121.5 82.329 Z " fill="rgb(45,84,147)" vector-effect="non-scaling-stroke" stroke-width="1" stroke="rgb(255,255,255)" stroke-opacity="1000000" stroke-linejoin="miter" stroke-linecap="square" stroke-miterlimit="3"/><path d=" M 141.5 70.782 L 121.5 82.329 L 121.5 59.235 L 141.5 47.688 L 141.5 70.782 L 141.5 70.782 L 141.5 70.782 Z " fill="rgb(56,106,185)" vector-effect="non-scaling-stroke" stroke-width="1" stroke="rgb(255,255,255)" stroke-opacity="1000000" stroke-linejoin="miter" stroke-linecap="square" stroke-miterlimit="3"/></g><g id="Group"><path d=" M 121.5 13.047 L 101.5 1.5 L 81.5 13.047 L 101.5 24.594 L 121.5 13.047 L 121.5 13.047 L 121.5 13.047 Z " fill="rgb(44,117,234)" vector-effect="non-scaling-stroke" stroke-width="1" stroke="rgb(255,255,255)" stroke-opacity="1000000" stroke-linejoin="miter" stroke-linecap="square" stroke-miterlimit="3"/><path d=" M 101.5 47.688 L 81.5 36.141 L 81.5 13.047 L 101.5 24.594 L 101.5 47.688 L 101.5 47.688 L 101.5 47.688 Z " fill="rgb(45,84,147)" vector-effect="non-scaling-stroke" stroke-width="1" stroke="rgb(255,255,255)" stroke-opacity="1000000" stroke-linejoin="miter" stroke-linecap="square" stroke-miterlimit="3"/><path d=" M 121.5 36.141 L 101.5 47.688 L 101.5 24.594 L 121.5 13.047 L 121.5 36.141 L 121.5 36.141 L 121.5 36.141 Z " fill="rgb(56,106,185)" vector-effect="non-scaling-stroke" stroke-width="1" stroke="rgb(255,255,255)" stroke-opacity="1000000" stroke-linejoin="miter" stroke-linecap="square" stroke-miterlimit="3"/></g><g id="Group"><path d=" M 81.5 13.047 L 61.5 1.5 L 41.5 13.047 L 61.5 24.594 L 81.5 13.047 L 81.5 13.047 L 81.5 13.047 Z " fill="rgb(44,117,234)" vector-effect="non-scaling-stroke" stroke-width="1" stroke="rgb(255,255,255)" stroke-opacity="1000000" stroke-linejoin="miter" stroke-linecap="square" stroke-miterlimit="3"/><path d=" M 61.5 47.688 L 41.5 36.141 L 41.5 13.047 L 61.5 24.594 L 61.5 47.688 L 61.5 47.688 L 61.5 47.688 Z " fill="rgb(45,84,147)" vector-effect="non-scaling-stroke" stroke-width="1" stroke="rgb(255,255,255)" stroke-opacity="1000000" stroke-linejoin="miter" stroke-linecap="square" stroke-miterlimit="3"/><path d=" M 81.5 36.141 L 61.5 47.688 L 61.5 24.594 L 81.5 13.047 L 81.5 36.141 L 81.5 36.141 L 81.5 36.141 Z " fill="rgb(56,106,185)" vector-effect="non-scaling-stroke" stroke-width="1" stroke="rgb(255,255,255)" stroke-opacity="1000000" stroke-linejoin="miter" stroke-linecap="square" stroke-miterlimit="3"/></g><g id="Group"><path d=" M 121.5 80.829 L 101.5 69.282 L 81.5 80.829 L 101.5 92.376 L 121.5 80.829 L 121.5 80.829 L 121.5 80.829 Z " fill="rgb(44,117,234)" vector-effect="non-scaling-stroke" stroke-width="1" stroke="rgb(255,255,255)" stroke-opacity="1000000" stroke-linejoin="miter" stroke-linecap="square" stroke-miterlimit="3"/><path d=" M 101.5 115.47 L 81.5 103.923 L 81.5 80.829 L 101.5 92.376 L 101.5 115.47 L 101.5 115.47 L 101.5 115.47 Z " fill="rgb(45,84,147)" vector-effect="non-scaling-stroke" stroke-width="1" stroke="rgb(255,255,255)" stroke-opacity="1000000" stroke-linejoin="miter" stroke-linecap="square" stroke-miterlimit="3"/><path d=" M 121.5 103.923 L 101.5 115.47 L 101.5 92.376 L 121.5 80.829 L 121.5 103.923 L 121.5 103.923 L 121.5 103.923 Z " fill="rgb(56,106,185)" vector-effect="non-scaling-stroke" stroke-width="1" stroke="rgb(255,255,255)" stroke-opacity="1000000" stroke-linejoin="miter" stroke-linecap="square" stroke-miterlimit="3"/></g><g id="Group"><path d=" M 101.5 46.188 L 81.5 34.641 L 61.5 46.188 L 81.5 57.735 L 101.5 46.188 L 101.5 46.188 L 101.5 46.188 Z " fill="rgb(44,117,234)" vector-effect="non-scaling-stroke" stroke-width="1" stroke="rgb(255,255,255)" stroke-opacity="1000000" stroke-linejoin="miter" stroke-linecap="square" stroke-miterlimit="3"/><path d=" M 81.5 80.829 L 61.5 69.282 L 61.5 46.188 L 81.5 57.735 L 81.5 80.829 L 81.5 80.829 L 81.5 80.829 Z " fill="rgb(45,84,147)" vector-effect="non-scaling-stroke" stroke-width="1" stroke="rgb(255,255,255)" stroke-opacity="1000000" stroke-linejoin="miter" stroke-linecap="square" stroke-miterlimit="3"/><path d=" M 101.5 69.282 L 81.5 80.829 L 81.5 57.735 L 101.5 46.188 L 101.5 69.282 L 101.5 69.282 L 101.5 69.282 Z " fill="rgb(56,106,185)" vector-effect="non-scaling-stroke" stroke-width="1" stroke="rgb(255,255,255)" stroke-opacity="1000000" stroke-linejoin="miter" stroke-linecap="square" stroke-miterlimit="3"/></g><g id="Group"><path d=" M 141.5 115.47 L 121.5 103.923 L 101.5 115.47 L 121.5 127.017 L 141.5 115.47 L 141.5 115.47 L 141.5 115.47 Z " fill="rgb(44,117,234)" vector-effect="non-scaling-stroke" stroke-width="1" stroke="rgb(255,255,255)" stroke-opacity="1000000" stroke-linejoin="miter" stroke-linecap="square" stroke-miterlimit="3"/><path d=" M 121.5 150.111 L 101.5 138.564 L 101.5 115.47 L 121.5 127.017 L 121.5 150.111 L 121.5 150.111 L 121.5 150.111 Z " fill="rgb(45,84,147)" vector-effect="non-scaling-stroke" stroke-width="1" stroke="rgb(255,255,255)" stroke-opacity="1000000" stroke-linejoin="miter" stroke-linecap="square" stroke-miterlimit="3"/><path d=" M 141.5 138.564 L 121.5 150.111 L 121.5 127.017 L 141.5 115.47 L 141.5 138.564 L 141.5 138.564 L 141.5 138.564 Z " fill="rgb(56,106,185)" vector-effect="non-scaling-stroke" stroke-width="1" stroke="rgb(255,255,255)" stroke-opacity="1000000" stroke-linejoin="miter" stroke-linecap="square" stroke-miterlimit="3"/></g><g id="Group"><path d=" M 61.5 46.188 L 41.5 34.641 L 21.5 46.188 L 41.5 57.735 L 61.5 46.188 L 61.5 46.188 L 61.5 46.188 Z " fill="rgb(44,117,234)" vector-effect="non-scaling-stroke" stroke-width="1" stroke="rgb(255,255,255)" stroke-opacity="1000000" stroke-linejoin="miter" stroke-linecap="square" stroke-miterlimit="3"/><path d=" M 41.5 80.829 L 21.5 69.282 L 21.5 46.188 L 41.5 57.735 L 41.5 80.829 L 41.5 80.829 L 41.5 80.829 Z " fill="rgb(45,84,147)" vector-effect="non-scaling-stroke" stroke-width="1" stroke="rgb(255,255,255)" stroke-opacity="1000000" stroke-linejoin="miter" stroke-linecap="square" stroke-miterlimit="3"/><path d=" M 61.5 69.282 L 41.5 80.829 L 41.5 57.735 L 61.5 46.188 L 61.5 69.282 L 61.5 69.282 L 61.5 69.282 Z " fill="rgb(56,106,185)" vector-effect="non-scaling-stroke" stroke-width="1" stroke="rgb(255,255,255)" stroke-opacity="1000000" stroke-linejoin="miter" stroke-linecap="square" stroke-miterlimit="3"/></g><g id="Group"><path d=" M 81.5 80.829 L 61.5 69.282 L 41.5 80.829 L 61.5 92.376 L 81.5 80.829 L 81.5 80.829 L 81.5 80.829 Z " fill="rgb(44,117,234)" vector-effect="non-scaling-stroke" stroke-width="1" stroke="rgb(255,255,255)" stroke-opacity="1000000" stroke-linejoin="miter" stroke-linecap="square" stroke-miterlimit="3"/><path d=" M 61.5 115.47 L 41.5 103.923 L 41.5 80.829 L 61.5 92.376 L 61.5 115.47 L 61.5 115.47 L 61.5 115.47 Z " fill="rgb(45,84,147)" vector-effect="non-scaling-stroke" stroke-width="1" stroke="rgb(255,255,255)" stroke-opacity="1000000" stroke-linejoin="miter" stroke-linecap="square" stroke-miterlimit="3"/><path d=" M 81.5 103.923 L 61.5 115.47 L 61.5 92.376 L 81.5 80.829 L 81.5 103.923 L 81.5 103.923 L 81.5 103.923 Z " fill="rgb(56,106,185)" vector-effect="non-scaling-stroke" stroke-width="1" stroke="rgb(255,255,255)" stroke-opacity="1000000" stroke-linejoin="miter" stroke-linecap="square" stroke-miterlimit="3"/></g><g id="Group"><path d=" M 101.5 115.47 L 81.5 103.923 L 61.5 115.47 L 81.5 127.017 L 101.5 115.47 L 101.5 115.47 L 101.5 115.47 Z " fill="rgb(44,117,234)" vector-effect="non-scaling-stroke" stroke-width="1" stroke="rgb(255,255,255)" stroke-opacity="1000000" stroke-linejoin="miter" stroke-linecap="square" stroke-miterlimit="3"/><path d=" M 81.5 150.111 L 61.5 138.564 L 61.5 115.47 L 81.5 127.017 L 81.5 150.111 L 81.5 150.111 L 81.5 150.111 Z " fill="rgb(45,84,147)" vector-effect="non-scaling-stroke" stroke-width="1" stroke="rgb(255,255,255)" stroke-opacity="1000000" stroke-linejoin="miter" stroke-linecap="square" stroke-miterlimit="3"/><path d=" M 101.5 138.564 L 81.5 150.111 L 81.5 127.017 L 101.5 115.47 L 101.5 138.564 L 101.5 138.564 L 101.5 138.564 Z " fill="rgb(56,106,185)" vector-effect="non-scaling-stroke" stroke-width="1" stroke="rgb(255,255,255)" stroke-opacity="1000000" stroke-linejoin="miter" stroke-linecap="square" stroke-miterlimit="3"/></g><g id="Group"><path d=" M 41.5 80.829 L 21.5 69.282 L 1.5 80.829 L 21.5 92.376 L 41.5 80.829 L 41.5 80.829 L 41.5 80.829 Z " fill="rgb(44,117,234)" vector-effect="non-scaling-stroke" stroke-width="1" stroke="rgb(255,255,255)" stroke-opacity="1000000" stroke-linejoin="miter" stroke-linecap="square" stroke-miterlimit="3"/><path d=" M 21.5 115.47 L 1.5 103.923 L 1.5 80.829 L 21.5 92.376 L 21.5 115.47 L 21.5 115.47 L 21.5 115.47 Z " fill="rgb(45,84,147)" vector-effect="non-scaling-stroke" stroke-width="1" stroke="rgb(255,255,255)" stroke-opacity="1000000" stroke-linejoin="miter" stroke-linecap="square" stroke-miterlimit="3"/><path d=" M 41.5 103.923 L 21.5 115.47 L 21.5 92.376 L 41.5 80.829 L 41.5 103.923 L 41.5 103.923 L 41.5 103.923 Z " fill="rgb(56,106,185)" vector-effect="non-scaling-stroke" stroke-width="1" stroke="rgb(255,255,255)" stroke-opacity="1000000" stroke-linejoin="miter" stroke-linecap="square" stroke-miterlimit="3"/></g><g id="Group"><path d=" M 61.5 115.47 L 41.5 103.923 L 21.5 115.47 L 41.5 127.017 L 61.5 115.47 L 61.5 115.47 L 61.5 115.47 Z " fill="rgb(44,117,234)" vector-effect="non-scaling-stroke" stroke-width="1" stroke="rgb(255,255,255)" stroke-opacity="1000000" stroke-linejoin="miter" stroke-linecap="square" stroke-miterlimit="3"/><path d=" M 41.5 150.111 L 21.5 138.564 L 21.5 115.47 L 41.5 127.017 L 41.5 150.111 L 41.5 150.111 L 41.5 150.111 Z " fill="rgb(45,84,147)" vector-effect="non-scaling-stroke" stroke-width="1" stroke="rgb(255,255,255)" stroke-opacity="1000000" stroke-linejoin="miter" stroke-linecap="square" stroke-miterlimit="3"/><path d=" M 61.5 138.564 L 41.5 150.111 L 41.5 127.017 L 61.5 115.47 L 61.5 138.564 L 61.5 138.564 L 61.5 138.564 Z " fill="rgb(56,106,185)" vector-effect="non-scaling-stroke" stroke-width="1" stroke="rgb(255,255,255)" stroke-opacity="1000000" stroke-linejoin="miter" stroke-linecap="square" stroke-miterlimit="3"/></g></g></g></g><g opacity="0.73"><path d=" M 40 75.056 C 40 46.377 63.283 23.094 91.962 23.094 C 120.64 23.094 143.923 46.377 143.923 75.056 C 143.923 103.734 120.64 127.017 91.962 127.017 C 63.283 127.017 40 103.734 40 75.056 Z " fill="rgb(235,235,235)" vector-effect="non-scaling-stroke" stroke-width="1" stroke="rgb(44,117,234)" stroke-opacity="100" stroke-linejoin="miter" stroke-linecap="square" stroke-miterlimit="3"/></g></g></g></g></svg>