<?xml version="1.0" standalone="no"?><!-- Generator: Gravit.io --><svg xmlns="http://www.w3.org/2000/svg" xmlns:xlink="http://www.w3.org/1999/xlink" style="isolation:isolate" viewBox="0 0 183 153.111" width="183" height="153.111"><defs><clipPath id="_clipPath_1JOeTaMJgo8wirzlXc515GzcHLTDbYvN"><rect width="183" height="153.111"/></clipPath></defs><g clip-path="url(#_clipPath_1JOeTaMJgo8wirzlXc515GzcHLTDbYvN)"><g id="Group"><path d=" M 181.5 47.688 L 161.5 36.141 L 141.5 47.688 L 161.5 59.235 L 181.5 47.688 Z " fill="rgb(0,255,0)" vector-effect="non-scaling-stroke" stroke-width="1" stroke="rgb(255,255,255)" stroke-opacity="100" stroke-linejoin="miter" stroke-linecap="square" stroke-miterlimit="3"/><path d=" M 161.5 82.329 L 141.5 70.782 L 141.5 47.688 L 161.5 59.235 L 161.5 82.329 Z " fill="rgb(1,94,1)" vector-effect="non-scaling-stroke" stroke-width="1" stroke="rgb(255,255,255)" stroke-opacity="100" stroke-linejoin="miter" stroke-linecap="square" stroke-miterlimit="3"/><path d=" M 181.5 70.782 L 161.5 82.329 L 161.5 59.235 L 181.5 47.688 L 181.5 70.782 Z " fill="rgb(1,172,1)" vector-effect="non-scaling-stroke" stroke-width="1" stroke="rgb(255,255,255)" stroke-opacity="100" stroke-linejoin="miter" stroke-linecap="square" stroke-miterlimit="3"/></g><g id="Group"><path d=" M 161.5 13.047 L 141.5 1.5 L 121.5 13.047 L 141.5 24.594 L 161.5 13.047 Z " fill="rgb(0,255,0)" vector-effect="non-scaling-stroke" stroke-width="1" stroke="rgb(255,255,255)" stroke-opacity="100" stroke-linejoin="miter" stroke-linecap="square" stroke-miterlimit="3"/><path d=" M 141.5 47.688 L 121.5 36.141 L 121.5 13.047 L 141.5 24.594 L 141.5 47.688 Z " fill="rgb(1,94,1)" vector-effect="non-scaling-stroke" stroke-width="1" stroke="rgb(255,255,255)" stroke-opacity="100" stroke-linejoin="miter" stroke-linecap="square" stroke-miterlimit="3"/><path d=" M 161.5 36.141 L 141.5 47.688 L 141.5 24.594 L 161.5 13.047 L 161.5 36.141 Z " fill="rgb(1,172,1)" vector-effect="non-scaling-stroke" stroke-width="1" stroke="rgb(255,255,255)" stroke-opacity="100" stroke-linejoin="miter" stroke-linecap="square" stroke-miterlimit="3"/></g><g id="Group"><path d=" M 121.5 13.047 L 101.5 1.5 L 81.5 13.047 L 101.5 24.594 L 121.5 13.047 Z " fill="rgb(0,255,0)" vector-effect="non-scaling-stroke" stroke-width="1" stroke="rgb(255,255,255)" stroke-opacity="100" stroke-linejoin="miter" stroke-linecap="square" stroke-miterlimit="3"/><path d=" M 101.5 47.688 L 81.5 36.141 L 81.5 13.047 L 101.5 24.594 L 101.5 47.688 Z " fill="rgb(1,94,1)" vector-effect="non-scaling-stroke" stroke-width="1" stroke="rgb(255,255,255)" stroke-opacity="100" stroke-linejoin="miter" stroke-linecap="square" stroke-miterlimit="3"/><path d=" M 121.5 36.141 L 101.5 47.688 L 101.5 24.594 L 121.5 13.047 L 121.5 36.141 Z " fill="rgb(1,172,1)" vector-effect="non-scaling-stroke" stroke-width="1" stroke="rgb(255,255,255)" stroke-opacity="100" stroke-linejoin="miter" stroke-linecap="square" stroke-miterlimit="3"/></g><g id="Group"><path d=" M 81.5 13.047 L 61.5 1.5 L 41.5 13.047 L 61.5 24.594 L 81.5 13.047 Z " fill="rgb(0,255,0)" vector-effect="non-scaling-stroke" stroke-width="1" stroke="rgb(255,255,255)" stroke-opacity="100" stroke-linejoin="miter" stroke-linecap="square" stroke-miterlimit="3"/><path d=" M 61.5 47.688 L 41.5 36.141 L 41.5 13.047 L 61.5 24.594 L 61.5 47.688 Z " fill="rgb(1,94,1)" vector-effect="non-scaling-stroke" stroke-width="1" stroke="rgb(255,255,255)" stroke-opacity="100" stroke-linejoin="miter" stroke-linecap="square" stroke-miterlimit="3"/><path d=" M 81.5 36.141 L 61.5 47.688 L 61.5 24.594 L 81.5 13.047 L 81.5 36.141 Z " fill="rgb(1,172,1)" vector-effect="non-scaling-stroke" stroke-width="1" stroke="rgb(255,255,255)" stroke-opacity="100" stroke-linejoin="miter" stroke-linecap="square" stroke-miterlimit="3"/></g><g id="Group"><path d=" M 61.5 47.688 L 41.5 36.141 L 21.5 47.688 L 41.5 59.235 L 61.5 47.688 Z " fill="rgb(0,255,0)" vector-effect="non-scaling-stroke" stroke-width="1" stroke="rgb(255,255,255)" stroke-opacity="100" stroke-linejoin="miter" stroke-linecap="square" stroke-miterlimit="3"/><path d=" M 41.5 82.329 L 21.5 70.782 L 21.5 47.688 L 41.5 59.235 L 41.5 82.329 Z " fill="rgb(1,94,1)" vector-effect="non-scaling-stroke" stroke-width="1" stroke="rgb(255,255,255)" stroke-opacity="100" stroke-linejoin="miter" stroke-linecap="square" stroke-miterlimit="3"/><path d=" M 61.5 70.782 L 41.5 82.329 L 41.5 59.235 L 61.5 47.688 L 61.5 70.782 Z " fill="rgb(1,172,1)" vector-effect="non-scaling-stroke" stroke-width="1" stroke="rgb(255,255,255)" stroke-opacity="100" stroke-linejoin="miter" stroke-linecap="square" stroke-miterlimit="3"/></g><g id="Group"><path d=" M 41.5 82.329 L 21.5 70.782 L 1.5 82.329 L 21.5 93.876 L 41.5 82.329 Z " fill="rgb(0,255,0)" vector-effect="non-scaling-stroke" stroke-width="1" stroke="rgb(255,255,255)" stroke-opacity="100" stroke-linejoin="miter" stroke-linecap="square" stroke-miterlimit="3"/><path d=" M 21.5 116.97 L 1.5 105.423 L 1.5 82.329 L 21.5 93.876 L 21.5 116.97 Z " fill="rgb(1,94,1)" vector-effect="non-scaling-stroke" stroke-width="1" stroke="rgb(255,255,255)" stroke-opacity="100" stroke-linejoin="miter" stroke-linecap="square" stroke-miterlimit="3"/><path d=" M 41.5 105.423 L 21.5 116.97 L 21.5 93.876 L 41.5 82.329 L 41.5 105.423 Z " fill="rgb(1,172,1)" vector-effect="non-scaling-stroke" stroke-width="1" stroke="rgb(255,255,255)" stroke-opacity="100" stroke-linejoin="miter" stroke-linecap="square" stroke-miterlimit="3"/></g><g id="Group"><path d=" M 61.5 116.97 L 41.5 105.423 L 21.5 116.97 L 41.5 128.517 L 61.5 116.97 Z " fill="rgb(0,255,0)" vector-effect="non-scaling-stroke" stroke-width="1" stroke="rgb(255,255,255)" stroke-opacity="100" stroke-linejoin="miter" stroke-linecap="square" stroke-miterlimit="3"/><path d=" M 41.5 151.611 L 21.5 140.064 L 21.5 116.97 L 41.5 128.517 L 41.5 151.611 Z " fill="rgb(1,94,1)" vector-effect="non-scaling-stroke" stroke-width="1" stroke="rgb(255,255,255)" stroke-opacity="100" stroke-linejoin="miter" stroke-linecap="square" stroke-miterlimit="3"/><path d=" M 61.5 140.064 L 41.5 151.611 L 41.5 128.517 L 61.5 116.97 L 61.5 140.064 Z " fill="rgb(1,172,1)" vector-effect="non-scaling-stroke" stroke-width="1" stroke="rgb(255,255,255)" stroke-opacity="100" stroke-linejoin="miter" stroke-linecap="square" stroke-miterlimit="3"/></g><g id="Group"><path d=" M 101.5 116.97 L 81.5 105.423 L 61.5 116.97 L 81.5 128.517 L 101.5 116.97 Z " fill="rgb(0,255,0)" vector-effect="non-scaling-stroke" stroke-width="1" stroke="rgb(255,255,255)" stroke-opacity="100" stroke-linejoin="miter" stroke-linecap="square" stroke-miterlimit="3"/><path d=" M 81.5 151.611 L 61.5 140.064 L 61.5 116.97 L 81.5 128.517 L 81.5 151.611 Z " fill="rgb(1,94,1)" vector-effect="non-scaling-stroke" stroke-width="1" stroke="rgb(255,255,255)" stroke-opacity="100" stroke-linejoin="miter" stroke-linecap="square" stroke-miterlimit="3"/><path d=" M 101.5 140.064 L 81.5 151.611 L 81.5 128.517 L 101.5 116.97 L 101.5 140.064 Z " fill="rgb(1,172,1)" vector-effect="non-scaling-stroke" stroke-width="1" stroke="rgb(255,255,255)" stroke-opacity="100" stroke-linejoin="miter" stroke-linecap="square" stroke-miterlimit="3"/></g><g id="Group"><path d=" M 141.5 116.97 L 121.5 105.423 L 101.5 116.97 L 121.5 128.517 L 141.5 116.97 Z " fill="rgb(0,255,0)" vector-effect="non-scaling-stroke" stroke-width="1" stroke="rgb(255,255,255)" stroke-opacity="100" stroke-linejoin="miter" stroke-linecap="square" stroke-miterlimit="3"/><path d=" M 121.5 151.611 L 101.5 140.064 L 101.5 116.97 L 121.5 128.517 L 121.5 151.611 Z " fill="rgb(1,94,1)" vector-effect="non-scaling-stroke" stroke-width="1" stroke="rgb(255,255,255)" stroke-opacity="100" stroke-linejoin="miter" stroke-linecap="square" stroke-miterlimit="3"/><path d=" M 141.5 140.064 L 121.5 151.611 L 121.5 128.517 L 141.5 116.97 L 141.5 140.064 Z " fill="rgb(1,172,1)" vector-effect="non-scaling-stroke" stroke-width="1" stroke="rgb(255,255,255)" stroke-opacity="100" stroke-linejoin="miter" stroke-linecap="square" stroke-miterlimit="3"/></g><g id="Group"><path d=" M 161.5 82.329 L 141.5 70.782 L 121.5 82.329 L 141.5 93.876 L 161.5 82.329 Z " fill="rgb(0,255,0)" vector-effect="non-scaling-stroke" stroke-width="1" stroke="rgb(255,255,255)" stroke-opacity="100" stroke-linejoin="miter" stroke-linecap="square" stroke-miterlimit="3"/><path d=" M 141.5 116.97 L 121.5 105.423 L 121.5 82.329 L 141.5 93.876 L 141.5 116.97 Z " fill="rgb(1,94,1)" vector-effect="non-scaling-stroke" stroke-width="1" stroke="rgb(255,255,255)" stroke-opacity="100" stroke-linejoin="miter" stroke-linecap="square" stroke-miterlimit="3"/><path d=" M 161.5 105.423 L 141.5 116.97 L 141.5 93.876 L 161.5 82.329 L 161.5 105.423 Z " fill="rgb(1,172,1)" vector-effect="non-scaling-stroke" stroke-width="1" stroke="rgb(255,255,255)" stroke-opacity="100" stroke-linejoin="miter" stroke-linecap="square" stroke-miterlimit="3"/></g><g id="Group"><path d=" M 101.5 47.688 L 81.5 36.141 L 61.5 47.688 L 81.5 59.235 L 101.5 47.688 Z " fill="rgb(0,255,0)" vector-effect="non-scaling-stroke" stroke-width="1" stroke="rgb(255,255,255)" stroke-opacity="100" stroke-linejoin="miter" stroke-linecap="square" stroke-miterlimit="3"/><path d=" M 81.5 82.329 L 61.5 70.782 L 61.5 47.688 L 81.5 59.235 L 81.5 82.329 Z " fill="rgb(1,94,1)" vector-effect="non-scaling-stroke" stroke-width="1" stroke="rgb(255,255,255)" stroke-opacity="100" stroke-linejoin="miter" stroke-linecap="square" stroke-miterlimit="3"/><path d=" M 101.5 70.782 L 81.5 82.329 L 81.5 59.235 L 101.5 47.688 L 101.5 70.782 Z " fill="rgb(1,172,1)" vector-effect="non-scaling-stroke" stroke-width="1" stroke="rgb(255,255,255)" stroke-opacity="100" stroke-linejoin="miter" stroke-linecap="square" stroke-miterlimit="3"/></g><g id="Group"><path d=" M 141.5 47.688 L 121.5 36.141 L 101.5 47.688 L 121.5 59.235 L 141.5 47.688 Z " fill="rgb(0,255,0)" vector-effect="non-scaling-stroke" stroke-width="1" stroke="rgb(255,255,255)" stroke-opacity="100" stroke-linejoin="miter" stroke-linecap="square" stroke-miterlimit="3"/><path d=" M 121.5 82.329 L 101.5 70.782 L 101.5 47.688 L 121.5 59.235 L 121.5 82.329 Z " fill="rgb(1,94,1)" vector-effect="non-scaling-stroke" stroke-width="1" stroke="rgb(255,255,255)" stroke-opacity="100" stroke-linejoin="miter" stroke-linecap="square" stroke-miterlimit="3"/><path d=" M 141.5 70.782 L 121.5 82.329 L 121.5 59.235 L 141.5 47.688 L 141.5 70.782 Z " fill="rgb(1,172,1)" vector-effect="non-scaling-stroke" stroke-width="1" stroke="rgb(255,255,255)" stroke-opacity="100" stroke-linejoin="miter" stroke-linecap="square" stroke-miterlimit="3"/></g><g id="Group"><path d=" M 81.5 82.329 L 61.5 70.782 L 41.5 82.329 L 61.5 93.876 L 81.5 82.329 Z " fill="rgb(0,255,0)" vector-effect="non-scaling-stroke" stroke-width="1" stroke="rgb(255,255,255)" stroke-opacity="100" stroke-linejoin="miter" stroke-linecap="square" stroke-miterlimit="3"/><path d=" M 61.5 116.97 L 41.5 105.423 L 41.5 82.329 L 61.5 93.876 L 61.5 116.97 Z " fill="rgb(1,94,1)" vector-effect="non-scaling-stroke" stroke-width="1" stroke="rgb(255,255,255)" stroke-opacity="100" stroke-linejoin="miter" stroke-linecap="square" stroke-miterlimit="3"/><path d=" M 81.5 105.423 L 61.5 116.97 L 61.5 93.876 L 81.5 82.329 L 81.5 105.423 Z " fill="rgb(1,172,1)" vector-effect="non-scaling-stroke" stroke-width="1" stroke="rgb(255,255,255)" stroke-opacity="100" stroke-linejoin="miter" stroke-linecap="square" stroke-miterlimit="3"/></g><g id="Group"><path d=" M 121.5 82.329 L 101.5 70.782 L 81.5 82.329 L 101.5 93.876 L 121.5 82.329 Z " fill="rgb(0,255,0)" vector-effect="non-scaling-stroke" stroke-width="1" stroke="rgb(255,255,255)" stroke-opacity="100" stroke-linejoin="miter" stroke-linecap="square" stroke-miterlimit="3"/><path d=" M 101.5 116.97 L 81.5 105.423 L 81.5 82.329 L 101.5 93.876 L 101.5 116.97 Z " fill="rgb(1,94,1)" vector-effect="non-scaling-stroke" stroke-width="1" stroke="rgb(255,255,255)" stroke-opacity="100" stroke-linejoin="miter" stroke-linecap="square" stroke-miterlimit="3"/><path d=" M 121.5 105.423 L 101.5 116.97 L 101.5 93.876 L 121.5 82.329 L 121.5 105.423 Z " fill="rgb(1,172,1)" vector-effect="non-scaling-stroke" stroke-width="1" stroke="rgb(255,255,255)" stroke-opacity="100" stroke-linejoin="miter" stroke-linecap="square" stroke-miterlimit="3"/></g></g></svg>