<?xml version="1.0" standalone="no"?><!-- Generator: Gravit.io --><svg xmlns="http://www.w3.org/2000/svg" xmlns:xlink="http://www.w3.org/1999/xlink" style="isolation:isolate" viewBox="0 0 363 303.222" width="363" height="303.222"><defs><clipPath id="_clipPath_adNfqLXZSx1QA1zoHd1lLgxDq1VlgCEm"><rect width="363" height="303.222"/></clipPath></defs><g clip-path="url(#_clipPath_adNfqLXZSx1QA1zoHd1lLgxDq1VlgCEm)"><g id="Group"><g id="Group"><path d=" M 144 280.581 L 164 269.034 L 184 280.581 L 164 292.128 L 144 280.581 Z " fill="rgb(255,79,79)" vector-effect="non-scaling-stroke" stroke-width="1" stroke="rgb(255,255,255)" stroke-linejoin="miter" stroke-linecap="square" stroke-miterlimit="3"/><path d=" M 164 315.222 L 184 303.675 L 184 280.581 L 164 292.128 L 164 315.222 Z " fill="rgb(200,63,63)" vector-effect="non-scaling-stroke" stroke-width="1" stroke="rgb(255,255,255)" stroke-linejoin="miter" stroke-linecap="square" stroke-miterlimit="3"/><path d=" M 144 303.675 L 164 315.222 L 164 292.128 L 144 280.581 L 144 303.675 Z " fill="rgb(157,42,42)" vector-effect="non-scaling-stroke" stroke-width="1" stroke="rgb(255,255,255)" stroke-linejoin="miter" stroke-linecap="square" stroke-miterlimit="3"/></g><g id="Group"><path d=" M 144 257.487 L 164 245.94 L 184 257.487 L 164 269.034 L 144 257.487 Z " fill="rgb(255,79,79)" vector-effect="non-scaling-stroke" stroke-width="1" stroke="rgb(255,255,255)" stroke-linejoin="miter" stroke-linecap="square" stroke-miterlimit="3"/><path d=" M 164 292.128 L 184 280.581 L 184 257.487 L 164 269.034 L 164 292.128 Z " fill="rgb(200,63,63)" vector-effect="non-scaling-stroke" stroke-width="1" stroke="rgb(255,255,255)" stroke-linejoin="miter" stroke-linecap="square" stroke-miterlimit="3"/><path d=" M 144 280.581 L 164 292.128 L 164 269.034 L 144 257.487 L 144 280.581 Z " fill="rgb(157,42,42)" vector-effect="non-scaling-stroke" stroke-width="1" stroke="rgb(255,255,255)" stroke-linejoin="miter" stroke-linecap="square" stroke-miterlimit="3"/></g><g id="Group"><path d=" M 144 234.393 L 164 222.846 L 184 234.393 L 164 245.94 L 144 234.393 Z " fill="rgb(255,79,79)" vector-effect="non-scaling-stroke" stroke-width="1" stroke="rgb(255,255,255)" stroke-linejoin="miter" stroke-linecap="square" stroke-miterlimit="3"/><path d=" M 164 269.034 L 184 257.487 L 184 234.393 L 164 245.94 L 164 269.034 Z " fill="rgb(200,63,63)" vector-effect="non-scaling-stroke" stroke-width="1" stroke="rgb(255,255,255)" stroke-linejoin="miter" stroke-linecap="square" stroke-miterlimit="3"/><path d=" M 144 257.487 L 164 269.034 L 164 245.94 L 144 234.393 L 144 257.487 Z " fill="rgb(157,42,42)" vector-effect="non-scaling-stroke" stroke-width="1" stroke="rgb(255,255,255)" stroke-linejoin="miter" stroke-linecap="square" stroke-miterlimit="3"/></g><g id="Group"><path d=" M 144 211.299 L 164 199.752 L 184 211.299 L 164 222.846 L 144 211.299 Z " fill="rgb(255,79,79)" vector-effect="non-scaling-stroke" stroke-width="1" stroke="rgb(255,255,255)" stroke-linejoin="miter" stroke-linecap="square" stroke-miterlimit="3"/><path d=" M 164 245.94 L 184 234.393 L 184 211.299 L 164 222.846 L 164 245.94 Z " fill="rgb(200,63,63)" vector-effect="non-scaling-stroke" stroke-width="1" stroke="rgb(255,255,255)" stroke-linejoin="miter" stroke-linecap="square" stroke-miterlimit="3"/><path d=" M 144 234.393 L 164 245.94 L 164 222.846 L 144 211.299 L 144 234.393 Z " fill="rgb(157,42,42)" vector-effect="non-scaling-stroke" stroke-width="1" stroke="rgb(255,255,255)" stroke-linejoin="miter" stroke-linecap="square" stroke-miterlimit="3"/></g><g id="Group"><path d=" M 144 188.205 L 164 176.658 L 184 188.205 L 164 199.752 L 144 188.205 Z " fill="rgb(255,79,79)" vector-effect="non-scaling-stroke" stroke-width="1" stroke="rgb(255,255,255)" stroke-linejoin="miter" stroke-linecap="square" stroke-miterlimit="3"/><path d=" M 164 222.846 L 184 211.299 L 184 188.205 L 164 199.752 L 164 222.846 Z " fill="rgb(200,63,63)" vector-effect="non-scaling-stroke" stroke-width="1" stroke="rgb(255,255,255)" stroke-linejoin="miter" stroke-linecap="square" stroke-miterlimit="3"/><path d=" M 144 211.299 L 164 222.846 L 164 199.752 L 144 188.205 L 144 211.299 Z " fill="rgb(157,42,42)" vector-effect="non-scaling-stroke" stroke-width="1" stroke="rgb(255,255,255)" stroke-linejoin="miter" stroke-linecap="square" stroke-miterlimit="3"/></g><g id="Group"><path d=" M 144 165.111 L 164 153.564 L 184 165.111 L 164 176.658 L 144 165.111 Z " fill="rgb(255,79,79)" vector-effect="non-scaling-stroke" stroke-width="1" stroke="rgb(255,255,255)" stroke-linejoin="miter" stroke-linecap="square" stroke-miterlimit="3"/><path d=" M 164 199.752 L 184 188.205 L 184 165.111 L 164 176.658 L 164 199.752 Z " fill="rgb(200,63,63)" vector-effect="non-scaling-stroke" stroke-width="1" stroke="rgb(255,255,255)" stroke-linejoin="miter" stroke-linecap="square" stroke-miterlimit="3"/><path d=" M 144 188.205 L 164 199.752 L 164 176.658 L 144 165.111 L 144 188.205 Z " fill="rgb(157,42,42)" vector-effect="non-scaling-stroke" stroke-width="1" stroke="rgb(255,255,255)" stroke-linejoin="miter" stroke-linecap="square" stroke-miterlimit="3"/></g><g id="Group"><path d=" M 184 280.581 L 204 269.034 L 224 280.581 L 204 292.128 L 184 280.581 Z " fill="rgb(255,79,79)" vector-effect="non-scaling-stroke" stroke-width="1" stroke="rgb(255,255,255)" stroke-linejoin="miter" stroke-linecap="square" stroke-miterlimit="3"/><path d=" M 204 315.222 L 224 303.675 L 224 280.581 L 204 292.128 L 204 315.222 Z " fill="rgb(200,63,63)" vector-effect="non-scaling-stroke" stroke-width="1" stroke="rgb(255,255,255)" stroke-linejoin="miter" stroke-linecap="square" stroke-miterlimit="3"/><path d=" M 184 303.675 L 204 315.222 L 204 292.128 L 184 280.581 L 184 303.675 Z " fill="rgb(157,42,42)" vector-effect="non-scaling-stroke" stroke-width="1" stroke="rgb(255,255,255)" stroke-linejoin="miter" stroke-linecap="square" stroke-miterlimit="3"/></g><g id="Group"><path d=" M 224 280.581 L 244 269.034 L 264 280.581 L 244 292.128 L 224 280.581 Z " fill="rgb(255,79,79)" vector-effect="non-scaling-stroke" stroke-width="1" stroke="rgb(255,255,255)" stroke-linejoin="miter" stroke-linecap="square" stroke-miterlimit="3"/><path d=" M 244 315.222 L 264 303.675 L 264 280.581 L 244 292.128 L 244 315.222 Z " fill="rgb(200,63,63)" vector-effect="non-scaling-stroke" stroke-width="1" stroke="rgb(255,255,255)" stroke-linejoin="miter" stroke-linecap="square" stroke-miterlimit="3"/><path d=" M 224 303.675 L 244 315.222 L 244 292.128 L 224 280.581 L 224 303.675 Z " fill="rgb(157,42,42)" vector-effect="non-scaling-stroke" stroke-width="1" stroke="rgb(255,255,255)" stroke-linejoin="miter" stroke-linecap="square" stroke-miterlimit="3"/></g><g id="Group"><path d=" M 264 280.581 L 284 269.034 L 304 280.581 L 284 292.128 L 264 280.581 Z " fill="rgb(255,79,79)" vector-effect="non-scaling-stroke" stroke-width="1" stroke="rgb(255,255,255)" stroke-linejoin="miter" stroke-linecap="square" stroke-miterlimit="3"/><path d=" M 284 315.222 L 304 303.675 L 304 280.581 L 284 292.128 L 284 315.222 Z " fill="rgb(200,63,63)" vector-effect="non-scaling-stroke" stroke-width="1" stroke="rgb(255,255,255)" stroke-linejoin="miter" stroke-linecap="square" stroke-miterlimit="3"/><path d=" M 264 303.675 L 284 315.222 L 284 292.128 L 264 280.581 L 264 303.675 Z " fill="rgb(157,42,42)" vector-effect="non-scaling-stroke" stroke-width="1" stroke="rgb(255,255,255)" stroke-linejoin="miter" stroke-linecap="square" stroke-miterlimit="3"/></g><g id="Group"><path d=" M 304 280.581 L 324 269.034 L 344 280.581 L 324 292.128 L 304 280.581 Z " fill="rgb(255,79,79)" vector-effect="non-scaling-stroke" stroke-width="1" stroke="rgb(255,255,255)" stroke-linejoin="miter" stroke-linecap="square" stroke-miterlimit="3"/><path d=" M 324 315.222 L 344 303.675 L 344 280.581 L 324 292.128 L 324 315.222 Z " fill="rgb(200,63,63)" vector-effect="non-scaling-stroke" stroke-width="1" stroke="rgb(255,255,255)" stroke-linejoin="miter" stroke-linecap="square" stroke-miterlimit="3"/><path d=" M 304 303.675 L 324 315.222 L 324 292.128 L 304 280.581 L 304 303.675 Z " fill="rgb(157,42,42)" vector-effect="non-scaling-stroke" stroke-width="1" stroke="rgb(255,255,255)" stroke-linejoin="miter" stroke-linecap="square" stroke-miterlimit="3"/></g><g id="Group"><path d=" M 264 257.487 L 284 245.94 L 304 257.487 L 284 269.034 L 264 257.487 Z " fill="rgb(255,79,79)" vector-effect="non-scaling-stroke" stroke-width="1" stroke="rgb(255,255,255)" stroke-linejoin="miter" stroke-linecap="square" stroke-miterlimit="3"/><path d=" M 284 292.128 L 304 280.581 L 304 257.487 L 284 269.034 L 284 292.128 Z " fill="rgb(200,63,63)" vector-effect="non-scaling-stroke" stroke-width="1" stroke="rgb(255,255,255)" stroke-linejoin="miter" stroke-linecap="square" stroke-miterlimit="3"/><path d=" M 264 280.581 L 284 292.128 L 284 269.034 L 264 257.487 L 264 280.581 Z " fill="rgb(157,42,42)" vector-effect="non-scaling-stroke" stroke-width="1" stroke="rgb(255,255,255)" stroke-linejoin="miter" stroke-linecap="square" stroke-miterlimit="3"/></g><g id="Group"><path d=" M 304 257.487 L 324 245.94 L 344 257.487 L 324 269.034 L 304 257.487 Z " fill="rgb(255,79,79)" vector-effect="non-scaling-stroke" stroke-width="1" stroke="rgb(255,255,255)" stroke-linejoin="miter" stroke-linecap="square" stroke-miterlimit="3"/><path d=" M 324 292.128 L 344 280.581 L 344 257.487 L 324 269.034 L 324 292.128 Z " fill="rgb(200,63,63)" vector-effect="non-scaling-stroke" stroke-width="1" stroke="rgb(255,255,255)" stroke-linejoin="miter" stroke-linecap="square" stroke-miterlimit="3"/><path d=" M 304 280.581 L 324 292.128 L 324 269.034 L 304 257.487 L 304 280.581 Z " fill="rgb(157,42,42)" vector-effect="non-scaling-stroke" stroke-width="1" stroke="rgb(255,255,255)" stroke-linejoin="miter" stroke-linecap="square" stroke-miterlimit="3"/></g><g id="Group"><path d=" M 304 234.393 L 324 222.846 L 344 234.393 L 324 245.94 L 304 234.393 Z " fill="rgb(255,79,79)" vector-effect="non-scaling-stroke" stroke-width="1" stroke="rgb(255,255,255)" stroke-linejoin="miter" stroke-linecap="square" stroke-miterlimit="3"/><path d=" M 324 269.034 L 344 257.487 L 344 234.393 L 324 245.94 L 324 269.034 Z " fill="rgb(200,63,63)" vector-effect="non-scaling-stroke" stroke-width="1" stroke="rgb(255,255,255)" stroke-linejoin="miter" stroke-linecap="square" stroke-miterlimit="3"/><path d=" M 304 257.487 L 324 269.034 L 324 245.94 L 304 234.393 L 304 257.487 Z " fill="rgb(157,42,42)" vector-effect="non-scaling-stroke" stroke-width="1" stroke="rgb(255,255,255)" stroke-linejoin="miter" stroke-linecap="square" stroke-miterlimit="3"/></g><g id="Group"><path d=" M 304 211.299 L 324 199.752 L 344 211.299 L 324 222.846 L 304 211.299 Z " fill="rgb(255,79,79)" vector-effect="non-scaling-stroke" stroke-width="1" stroke="rgb(255,255,255)" stroke-linejoin="miter" stroke-linecap="square" stroke-miterlimit="3"/><path d=" M 324 245.94 L 344 234.393 L 344 211.299 L 324 222.846 L 324 245.94 Z " fill="rgb(200,63,63)" vector-effect="non-scaling-stroke" stroke-width="1" stroke="rgb(255,255,255)" stroke-linejoin="miter" stroke-linecap="square" stroke-miterlimit="3"/><path d=" M 304 234.393 L 324 245.94 L 324 222.846 L 304 211.299 L 304 234.393 Z " fill="rgb(157,42,42)" vector-effect="non-scaling-stroke" stroke-width="1" stroke="rgb(255,255,255)" stroke-linejoin="miter" stroke-linecap="square" stroke-miterlimit="3"/></g><g id="Group"><path d=" M 304 188.205 L 324 176.658 L 344 188.205 L 324 199.752 L 304 188.205 Z " fill="rgb(255,79,79)" vector-effect="non-scaling-stroke" stroke-width="1" stroke="rgb(255,255,255)" stroke-linejoin="miter" stroke-linecap="square" stroke-miterlimit="3"/><path d=" M 324 222.846 L 344 211.299 L 344 188.205 L 324 199.752 L 324 222.846 Z " fill="rgb(200,63,63)" vector-effect="non-scaling-stroke" stroke-width="1" stroke="rgb(255,255,255)" stroke-linejoin="miter" stroke-linecap="square" stroke-miterlimit="3"/><path d=" M 304 211.299 L 324 222.846 L 324 199.752 L 304 188.205 L 304 211.299 Z " fill="rgb(157,42,42)" vector-effect="non-scaling-stroke" stroke-width="1" stroke="rgb(255,255,255)" stroke-linejoin="miter" stroke-linecap="square" stroke-miterlimit="3"/></g><g id="Group"><path d=" M 304 165.111 L 324 153.564 L 344 165.111 L 324 176.658 L 304 165.111 Z " fill="rgb(255,79,79)" vector-effect="non-scaling-stroke" stroke-width="1" stroke="rgb(255,255,255)" stroke-linejoin="miter" stroke-linecap="square" stroke-miterlimit="3"/><path d=" M 324 199.752 L 344 188.205 L 344 165.111 L 324 176.658 L 324 199.752 Z " fill="rgb(200,63,63)" vector-effect="non-scaling-stroke" stroke-width="1" stroke="rgb(255,255,255)" stroke-linejoin="miter" stroke-linecap="square" stroke-miterlimit="3"/><path d=" M 304 188.205 L 324 199.752 L 324 176.658 L 304 165.111 L 304 188.205 Z " fill="rgb(157,42,42)" vector-effect="non-scaling-stroke" stroke-width="1" stroke="rgb(255,255,255)" stroke-linejoin="miter" stroke-linecap="square" stroke-miterlimit="3"/></g><g id="Group"><path d=" M 304 142.017 L 324 130.47 L 344 142.017 L 324 153.564 L 304 142.017 Z " fill="rgb(255,79,79)" vector-effect="non-scaling-stroke" stroke-width="1" stroke="rgb(255,255,255)" stroke-linejoin="miter" stroke-linecap="square" stroke-miterlimit="3"/><path d=" M 324 176.658 L 344 165.111 L 344 142.017 L 324 153.564 L 324 176.658 Z " fill="rgb(200,63,63)" vector-effect="non-scaling-stroke" stroke-width="1" stroke="rgb(255,255,255)" stroke-linejoin="miter" stroke-linecap="square" stroke-miterlimit="3"/><path d=" M 304 165.111 L 324 176.658 L 324 153.564 L 304 142.017 L 304 165.111 Z " fill="rgb(157,42,42)" vector-effect="non-scaling-stroke" stroke-width="1" stroke="rgb(255,255,255)" stroke-linejoin="miter" stroke-linecap="square" stroke-miterlimit="3"/></g><g id="Group"><path d=" M 304 118.923 L 324 107.376 L 344 118.923 L 324 130.47 L 304 118.923 Z " fill="rgb(255,79,79)" vector-effect="non-scaling-stroke" stroke-width="1" stroke="rgb(255,255,255)" stroke-linejoin="miter" stroke-linecap="square" stroke-miterlimit="3"/><path d=" M 324 153.564 L 344 142.017 L 344 118.923 L 324 130.47 L 324 153.564 Z " fill="rgb(200,63,63)" vector-effect="non-scaling-stroke" stroke-width="1" stroke="rgb(255,255,255)" stroke-linejoin="miter" stroke-linecap="square" stroke-miterlimit="3"/><path d=" M 304 142.017 L 324 153.564 L 324 130.47 L 304 118.923 L 304 142.017 Z " fill="rgb(157,42,42)" vector-effect="non-scaling-stroke" stroke-width="1" stroke="rgb(255,255,255)" stroke-linejoin="miter" stroke-linecap="square" stroke-miterlimit="3"/></g><g id="Group"><path d=" M 344 280.581 L 364 269.034 L 384 280.581 L 364 292.128 L 344 280.581 Z " fill="rgb(255,79,79)" vector-effect="non-scaling-stroke" stroke-width="1" stroke="rgb(255,255,255)" stroke-linejoin="miter" stroke-linecap="square" stroke-miterlimit="3"/><path d=" M 364 315.222 L 384 303.675 L 384 280.581 L 364 292.128 L 364 315.222 Z " fill="rgb(200,63,63)" vector-effect="non-scaling-stroke" stroke-width="1" stroke="rgb(255,255,255)" stroke-linejoin="miter" stroke-linecap="square" stroke-miterlimit="3"/><path d=" M 344 303.675 L 364 315.222 L 364 292.128 L 344 280.581 L 344 303.675 Z " fill="rgb(157,42,42)" vector-effect="non-scaling-stroke" stroke-width="1" stroke="rgb(255,255,255)" stroke-linejoin="miter" stroke-linecap="square" stroke-miterlimit="3"/></g><g id="Group"><path d=" M 344 257.487 L 364 245.94 L 384 257.487 L 364 269.034 L 344 257.487 Z " fill="rgb(255,79,79)" vector-effect="non-scaling-stroke" stroke-width="1" stroke="rgb(255,255,255)" stroke-linejoin="miter" stroke-linecap="square" stroke-miterlimit="3"/><path d=" M 364 292.128 L 384 280.581 L 384 257.487 L 364 269.034 L 364 292.128 Z " fill="rgb(200,63,63)" vector-effect="non-scaling-stroke" stroke-width="1" stroke="rgb(255,255,255)" stroke-linejoin="miter" stroke-linecap="square" stroke-miterlimit="3"/><path d=" M 344 280.581 L 364 292.128 L 364 269.034 L 344 257.487 L 344 280.581 Z " fill="rgb(157,42,42)" vector-effect="non-scaling-stroke" stroke-width="1" stroke="rgb(255,255,255)" stroke-linejoin="miter" stroke-linecap="square" stroke-miterlimit="3"/></g><g id="Group"><path d=" M 344 234.393 L 364 222.846 L 384 234.393 L 364 245.94 L 344 234.393 Z " fill="rgb(255,79,79)" vector-effect="non-scaling-stroke" stroke-width="1" stroke="rgb(255,255,255)" stroke-linejoin="miter" stroke-linecap="square" stroke-miterlimit="3"/><path d=" M 364 269.034 L 384 257.487 L 384 234.393 L 364 245.94 L 364 269.034 Z " fill="rgb(200,63,63)" vector-effect="non-scaling-stroke" stroke-width="1" stroke="rgb(255,255,255)" stroke-linejoin="miter" stroke-linecap="square" stroke-miterlimit="3"/><path d=" M 344 257.487 L 364 269.034 L 364 245.94 L 344 234.393 L 344 257.487 Z " fill="rgb(157,42,42)" vector-effect="non-scaling-stroke" stroke-width="1" stroke="rgb(255,255,255)" stroke-linejoin="miter" stroke-linecap="square" stroke-miterlimit="3"/></g><g id="Group"><path d=" M 344 211.299 L 364 199.752 L 384 211.299 L 364 222.846 L 344 211.299 Z " fill="rgb(255,79,79)" vector-effect="non-scaling-stroke" stroke-width="1" stroke="rgb(255,255,255)" stroke-linejoin="miter" stroke-linecap="square" stroke-miterlimit="3"/><path d=" M 364 245.94 L 384 234.393 L 384 211.299 L 364 222.846 L 364 245.94 Z " fill="rgb(200,63,63)" vector-effect="non-scaling-stroke" stroke-width="1" stroke="rgb(255,255,255)" stroke-linejoin="miter" stroke-linecap="square" stroke-miterlimit="3"/><path d=" M 344 234.393 L 364 245.94 L 364 222.846 L 344 211.299 L 344 234.393 Z " fill="rgb(157,42,42)" vector-effect="non-scaling-stroke" stroke-width="1" stroke="rgb(255,255,255)" stroke-linejoin="miter" stroke-linecap="square" stroke-miterlimit="3"/></g><g id="Group"><path d=" M 344 188.205 L 364 176.658 L 384 188.205 L 364 199.752 L 344 188.205 Z " fill="rgb(255,79,79)" vector-effect="non-scaling-stroke" stroke-width="1" stroke="rgb(255,255,255)" stroke-linejoin="miter" stroke-linecap="square" stroke-miterlimit="3"/><path d=" M 364 222.846 L 384 211.299 L 384 188.205 L 364 199.752 L 364 222.846 Z " fill="rgb(200,63,63)" vector-effect="non-scaling-stroke" stroke-width="1" stroke="rgb(255,255,255)" stroke-linejoin="miter" stroke-linecap="square" stroke-miterlimit="3"/><path d=" M 344 211.299 L 364 222.846 L 364 199.752 L 344 188.205 L 344 211.299 Z " fill="rgb(157,42,42)" vector-effect="non-scaling-stroke" stroke-width="1" stroke="rgb(255,255,255)" stroke-linejoin="miter" stroke-linecap="square" stroke-miterlimit="3"/></g><g id="Group"><path d=" M 344 165.111 L 364 153.564 L 384 165.111 L 364 176.658 L 344 165.111 Z " fill="rgb(255,79,79)" vector-effect="non-scaling-stroke" stroke-width="1" stroke="rgb(255,255,255)" stroke-linejoin="miter" stroke-linecap="square" stroke-miterlimit="3"/><path d=" M 364 199.752 L 384 188.205 L 384 165.111 L 364 176.658 L 364 199.752 Z " fill="rgb(200,63,63)" vector-effect="non-scaling-stroke" stroke-width="1" stroke="rgb(255,255,255)" stroke-linejoin="miter" stroke-linecap="square" stroke-miterlimit="3"/><path d=" M 344 188.205 L 364 199.752 L 364 176.658 L 344 165.111 L 344 188.205 Z " fill="rgb(157,42,42)" vector-effect="non-scaling-stroke" stroke-width="1" stroke="rgb(255,255,255)" stroke-linejoin="miter" stroke-linecap="square" stroke-miterlimit="3"/></g><g id="Group"><path d=" M 344 142.017 L 364 130.47 L 384 142.017 L 364 153.564 L 344 142.017 Z " fill="rgb(255,79,79)" vector-effect="non-scaling-stroke" stroke-width="1" stroke="rgb(255,255,255)" stroke-linejoin="miter" stroke-linecap="square" stroke-miterlimit="3"/><path d=" M 364 176.658 L 384 165.111 L 384 142.017 L 364 153.564 L 364 176.658 Z " fill="rgb(200,63,63)" vector-effect="non-scaling-stroke" stroke-width="1" stroke="rgb(255,255,255)" stroke-linejoin="miter" stroke-linecap="square" stroke-miterlimit="3"/><path d=" M 344 165.111 L 364 176.658 L 364 153.564 L 344 142.017 L 344 165.111 Z " fill="rgb(157,42,42)" vector-effect="non-scaling-stroke" stroke-width="1" stroke="rgb(255,255,255)" stroke-linejoin="miter" stroke-linecap="square" stroke-miterlimit="3"/></g><g id="Group"><path d=" M 344 118.923 L 364 107.376 L 384 118.923 L 364 130.47 L 344 118.923 Z " fill="rgb(255,79,79)" vector-effect="non-scaling-stroke" stroke-width="1" stroke="rgb(255,255,255)" stroke-linejoin="miter" stroke-linecap="square" stroke-miterlimit="3"/><path d=" M 364 153.564 L 384 142.017 L 384 118.923 L 364 130.47 L 364 153.564 Z " fill="rgb(200,63,63)" vector-effect="non-scaling-stroke" stroke-width="1" stroke="rgb(255,255,255)" stroke-linejoin="miter" stroke-linecap="square" stroke-miterlimit="3"/><path d=" M 344 142.017 L 364 153.564 L 364 130.47 L 344 118.923 L 344 142.017 Z " fill="rgb(157,42,42)" vector-effect="non-scaling-stroke" stroke-width="1" stroke="rgb(255,255,255)" stroke-linejoin="miter" stroke-linecap="square" stroke-miterlimit="3"/></g><g id="Group"><path d=" M 264 234.393 L 284 222.846 L 304 234.393 L 284 245.94 L 264 234.393 Z " fill="rgb(255,79,79)" vector-effect="non-scaling-stroke" stroke-width="1" stroke="rgb(255,255,255)" stroke-linejoin="miter" stroke-linecap="square" stroke-miterlimit="3"/><path d=" M 284 269.034 L 304 257.487 L 304 234.393 L 284 245.94 L 284 269.034 Z " fill="rgb(200,63,63)" vector-effect="non-scaling-stroke" stroke-width="1" stroke="rgb(255,255,255)" stroke-linejoin="miter" stroke-linecap="square" stroke-miterlimit="3"/><path d=" M 264 257.487 L 284 269.034 L 284 245.94 L 264 234.393 L 264 257.487 Z " fill="rgb(157,42,42)" vector-effect="non-scaling-stroke" stroke-width="1" stroke="rgb(255,255,255)" stroke-linejoin="miter" stroke-linecap="square" stroke-miterlimit="3"/></g><g id="Group"><path d=" M 264 211.299 L 284 199.752 L 304 211.299 L 284 222.846 L 264 211.299 Z " fill="rgb(255,79,79)" vector-effect="non-scaling-stroke" stroke-width="1" stroke="rgb(255,255,255)" stroke-linejoin="miter" stroke-linecap="square" stroke-miterlimit="3"/><path d=" M 284 245.94 L 304 234.393 L 304 211.299 L 284 222.846 L 284 245.94 Z " fill="rgb(200,63,63)" vector-effect="non-scaling-stroke" stroke-width="1" stroke="rgb(255,255,255)" stroke-linejoin="miter" stroke-linecap="square" stroke-miterlimit="3"/><path d=" M 264 234.393 L 284 245.94 L 284 222.846 L 264 211.299 L 264 234.393 Z " fill="rgb(157,42,42)" vector-effect="non-scaling-stroke" stroke-width="1" stroke="rgb(255,255,255)" stroke-linejoin="miter" stroke-linecap="square" stroke-miterlimit="3"/></g><g id="Group"><path d=" M 264 188.205 L 284 176.658 L 304 188.205 L 284 199.752 L 264 188.205 Z " fill="rgb(255,79,79)" vector-effect="non-scaling-stroke" stroke-width="1" stroke="rgb(255,255,255)" stroke-linejoin="miter" stroke-linecap="square" stroke-miterlimit="3"/><path d=" M 284 222.846 L 304 211.299 L 304 188.205 L 284 199.752 L 284 222.846 Z " fill="rgb(200,63,63)" vector-effect="non-scaling-stroke" stroke-width="1" stroke="rgb(255,255,255)" stroke-linejoin="miter" stroke-linecap="square" stroke-miterlimit="3"/><path d=" M 264 211.299 L 284 222.846 L 284 199.752 L 264 188.205 L 264 211.299 Z " fill="rgb(157,42,42)" vector-effect="non-scaling-stroke" stroke-width="1" stroke="rgb(255,255,255)" stroke-linejoin="miter" stroke-linecap="square" stroke-miterlimit="3"/></g><g id="Group"><path d=" M 224 257.487 L 244 245.94 L 264 257.487 L 244 269.034 L 224 257.487 Z " fill="rgb(255,79,79)" vector-effect="non-scaling-stroke" stroke-width="1" stroke="rgb(255,255,255)" stroke-linejoin="miter" stroke-linecap="square" stroke-miterlimit="3"/><path d=" M 244 292.128 L 264 280.581 L 264 257.487 L 244 269.034 L 244 292.128 Z " fill="rgb(200,63,63)" vector-effect="non-scaling-stroke" stroke-width="1" stroke="rgb(255,255,255)" stroke-linejoin="miter" stroke-linecap="square" stroke-miterlimit="3"/><path d=" M 224 280.581 L 244 292.128 L 244 269.034 L 224 257.487 L 224 280.581 Z " fill="rgb(157,42,42)" vector-effect="non-scaling-stroke" stroke-width="1" stroke="rgb(255,255,255)" stroke-linejoin="miter" stroke-linecap="square" stroke-miterlimit="3"/></g><g id="Group"><path d=" M 224 234.393 L 244 222.846 L 264 234.393 L 244 245.94 L 224 234.393 Z " fill="rgb(255,79,79)" vector-effect="non-scaling-stroke" stroke-width="1" stroke="rgb(255,255,255)" stroke-linejoin="miter" stroke-linecap="square" stroke-miterlimit="3"/><path d=" M 244 269.034 L 264 257.487 L 264 234.393 L 244 245.94 L 244 269.034 Z " fill="rgb(200,63,63)" vector-effect="non-scaling-stroke" stroke-width="1" stroke="rgb(255,255,255)" stroke-linejoin="miter" stroke-linecap="square" stroke-miterlimit="3"/><path d=" M 224 257.487 L 244 269.034 L 244 245.94 L 224 234.393 L 224 257.487 Z " fill="rgb(157,42,42)" vector-effect="non-scaling-stroke" stroke-width="1" stroke="rgb(255,255,255)" stroke-linejoin="miter" stroke-linecap="square" stroke-miterlimit="3"/><g id="Group"><path d=" M 184 257.487 L 204 245.94 L 224 257.487 L 204 269.034 L 184 257.487 Z " fill="rgb(255,79,79)" vector-effect="non-scaling-stroke" stroke-width="1" stroke="rgb(255,255,255)" stroke-linejoin="miter" stroke-linecap="square" stroke-miterlimit="3"/><path d=" M 204 292.128 L 224 280.581 L 224 257.487 L 204 269.034 L 204 292.128 Z " fill="rgb(200,63,63)" vector-effect="non-scaling-stroke" stroke-width="1" stroke="rgb(255,255,255)" stroke-linejoin="miter" stroke-linecap="square" stroke-miterlimit="3"/><path d=" M 184 280.581 L 204 292.128 L 204 269.034 L 184 257.487 L 184 280.581 Z " fill="rgb(157,42,42)" vector-effect="non-scaling-stroke" stroke-width="1" stroke="rgb(255,255,255)" stroke-linejoin="miter" stroke-linecap="square" stroke-miterlimit="3"/></g></g><g id="Group"><path d=" M 224 211.299 L 244 199.752 L 264 211.299 L 244 222.846 L 224 211.299 Z " fill="rgb(255,79,79)" vector-effect="non-scaling-stroke" stroke-width="1" stroke="rgb(255,255,255)" stroke-linejoin="miter" stroke-linecap="square" stroke-miterlimit="3"/><path d=" M 244 245.94 L 264 234.393 L 264 211.299 L 244 222.846 L 244 245.94 Z " fill="rgb(200,63,63)" vector-effect="non-scaling-stroke" stroke-width="1" stroke="rgb(255,255,255)" stroke-linejoin="miter" stroke-linecap="square" stroke-miterlimit="3"/><path d=" M 224 234.393 L 244 245.94 L 244 222.846 L 224 211.299 L 224 234.393 Z " fill="rgb(157,42,42)" vector-effect="non-scaling-stroke" stroke-width="1" stroke="rgb(255,255,255)" stroke-linejoin="miter" stroke-linecap="square" stroke-miterlimit="3"/></g><g id="Group"><path d=" M 344 95.829 L 364 84.282 L 384 95.829 L 364 107.376 L 344 95.829 Z " fill="rgb(255,79,79)" vector-effect="non-scaling-stroke" stroke-width="1" stroke="rgb(255,255,255)" stroke-linejoin="miter" stroke-linecap="square" stroke-miterlimit="3"/><path d=" M 364 130.47 L 384 118.923 L 384 95.829 L 364 107.376 L 364 130.47 Z " fill="rgb(200,63,63)" vector-effect="non-scaling-stroke" stroke-width="1" stroke="rgb(255,255,255)" stroke-linejoin="miter" stroke-linecap="square" stroke-miterlimit="3"/><path d=" M 344 118.923 L 364 130.47 L 364 107.376 L 344 95.829 L 344 118.923 Z " fill="rgb(157,42,42)" vector-effect="non-scaling-stroke" stroke-width="1" stroke="rgb(255,255,255)" stroke-linejoin="miter" stroke-linecap="square" stroke-miterlimit="3"/></g><g id="Group"><path d=" M 344 72.735 L 364 61.188 L 384 72.735 L 364 84.282 L 344 72.735 Z " fill="rgb(255,79,79)" vector-effect="non-scaling-stroke" stroke-width="1" stroke="rgb(255,255,255)" stroke-linejoin="miter" stroke-linecap="square" stroke-miterlimit="3"/><path d=" M 364 107.376 L 384 95.829 L 384 72.735 L 364 84.282 L 364 107.376 Z " fill="rgb(200,63,63)" vector-effect="non-scaling-stroke" stroke-width="1" stroke="rgb(255,255,255)" stroke-linejoin="miter" stroke-linecap="square" stroke-miterlimit="3"/><path d=" M 344 95.829 L 364 107.376 L 364 84.282 L 344 72.735 L 344 95.829 Z " fill="rgb(157,42,42)" vector-effect="non-scaling-stroke" stroke-width="1" stroke="rgb(255,255,255)" stroke-linejoin="miter" stroke-linecap="square" stroke-miterlimit="3"/></g><g id="Group"><path d=" M 344 49.641 L 364 38.094 L 384 49.641 L 364 61.188 L 344 49.641 Z " fill="rgb(255,79,79)" vector-effect="non-scaling-stroke" stroke-width="1" stroke="rgb(255,255,255)" stroke-linejoin="miter" stroke-linecap="square" stroke-miterlimit="3"/><path d=" M 364 84.282 L 384 72.735 L 384 49.641 L 364 61.188 L 364 84.282 Z " fill="rgb(200,63,63)" vector-effect="non-scaling-stroke" stroke-width="1" stroke="rgb(255,255,255)" stroke-linejoin="miter" stroke-linecap="square" stroke-miterlimit="3"/><path d=" M 344 72.735 L 364 84.282 L 364 61.188 L 344 49.641 L 344 72.735 Z " fill="rgb(157,42,42)" vector-effect="non-scaling-stroke" stroke-width="1" stroke="rgb(255,255,255)" stroke-linejoin="miter" stroke-linecap="square" stroke-miterlimit="3"/></g><g id="Group"><path d=" M 344 26.547 L 364 15 L 384 26.547 L 364 38.094 L 344 26.547 Z " fill="rgb(255,79,79)" vector-effect="non-scaling-stroke" stroke-width="1" stroke="rgb(255,255,255)" stroke-linejoin="miter" stroke-linecap="square" stroke-miterlimit="3"/><path d=" M 364 61.188 L 384 49.641 L 384 26.547 L 364 38.094 L 364 61.188 Z " fill="rgb(200,63,63)" vector-effect="non-scaling-stroke" stroke-width="1" stroke="rgb(255,255,255)" stroke-linejoin="miter" stroke-linecap="square" stroke-miterlimit="3"/><path d=" M 344 49.641 L 364 61.188 L 364 38.094 L 344 26.547 L 344 49.641 Z " fill="rgb(157,42,42)" vector-effect="non-scaling-stroke" stroke-width="1" stroke="rgb(255,255,255)" stroke-linejoin="miter" stroke-linecap="square" stroke-miterlimit="3"/></g><g id="Group"><path d=" M 224 188.205 L 244 176.658 L 264 188.205 L 244 199.752 L 224 188.205 Z " fill="rgb(255,79,79)" vector-effect="non-scaling-stroke" stroke-width="1" stroke="rgb(255,255,255)" stroke-linejoin="miter" stroke-linecap="square" stroke-miterlimit="3"/><path d=" M 244 222.846 L 264 211.299 L 264 188.205 L 244 199.752 L 244 222.846 Z " fill="rgb(200,63,63)" vector-effect="non-scaling-stroke" stroke-width="1" stroke="rgb(255,255,255)" stroke-linejoin="miter" stroke-linecap="square" stroke-miterlimit="3"/><path d=" M 224 211.299 L 244 222.846 L 244 199.752 L 224 188.205 L 224 211.299 Z " fill="rgb(157,42,42)" vector-effect="non-scaling-stroke" stroke-width="1" stroke="rgb(255,255,255)" stroke-linejoin="miter" stroke-linecap="square" stroke-miterlimit="3"/></g><g id="Group"><path d=" M 224 165.111 L 244 153.564 L 264 165.111 L 244 176.658 L 224 165.111 Z " fill="rgb(255,79,79)" vector-effect="non-scaling-stroke" stroke-width="1" stroke="rgb(255,255,255)" stroke-linejoin="miter" stroke-linecap="square" stroke-miterlimit="3"/><path d=" M 244 199.752 L 264 188.205 L 264 165.111 L 244 176.658 L 244 199.752 Z " fill="rgb(200,63,63)" vector-effect="non-scaling-stroke" stroke-width="1" stroke="rgb(255,255,255)" stroke-linejoin="miter" stroke-linecap="square" stroke-miterlimit="3"/><path d=" M 224 188.205 L 244 199.752 L 244 176.658 L 224 165.111 L 224 188.205 Z " fill="rgb(157,42,42)" vector-effect="non-scaling-stroke" stroke-width="1" stroke="rgb(255,255,255)" stroke-linejoin="miter" stroke-linecap="square" stroke-miterlimit="3"/></g><g id="Group"><path d=" M 224 142.017 L 244 130.47 L 264 142.017 L 244 153.564 L 224 142.017 Z " fill="rgb(255,79,79)" vector-effect="non-scaling-stroke" stroke-width="1" stroke="rgb(255,255,255)" stroke-linejoin="miter" stroke-linecap="square" stroke-miterlimit="3"/><path d=" M 244 176.658 L 264 165.111 L 264 142.017 L 244 153.564 L 244 176.658 Z " fill="rgb(200,63,63)" vector-effect="non-scaling-stroke" stroke-width="1" stroke="rgb(255,255,255)" stroke-linejoin="miter" stroke-linecap="square" stroke-miterlimit="3"/><path d=" M 224 165.111 L 244 176.658 L 244 153.564 L 224 142.017 L 224 165.111 Z " fill="rgb(157,42,42)" vector-effect="non-scaling-stroke" stroke-width="1" stroke="rgb(255,255,255)" stroke-linejoin="miter" stroke-linecap="square" stroke-miterlimit="3"/></g><g id="Group"><path d=" M 104 280.581 L 124 269.034 L 144 280.581 L 124 292.128 L 104 280.581 Z " fill="rgb(255,79,79)" vector-effect="non-scaling-stroke" stroke-width="1" stroke="rgb(255,255,255)" stroke-linejoin="miter" stroke-linecap="square" stroke-miterlimit="3"/><path d=" M 124 315.222 L 144 303.675 L 144 280.581 L 124 292.128 L 124 315.222 Z " fill="rgb(200,63,63)" vector-effect="non-scaling-stroke" stroke-width="1" stroke="rgb(255,255,255)" stroke-linejoin="miter" stroke-linecap="square" stroke-miterlimit="3"/><path d=" M 104 303.675 L 124 315.222 L 124 292.128 L 104 280.581 L 104 303.675 Z " fill="rgb(157,42,42)" vector-effect="non-scaling-stroke" stroke-width="1" stroke="rgb(255,255,255)" stroke-linejoin="miter" stroke-linecap="square" stroke-miterlimit="3"/></g><g id="Group"><path d=" M 104 257.487 L 124 245.94 L 144 257.487 L 124 269.034 L 104 257.487 Z " fill="rgb(255,79,79)" vector-effect="non-scaling-stroke" stroke-width="1" stroke="rgb(255,255,255)" stroke-linejoin="miter" stroke-linecap="square" stroke-miterlimit="3"/><path d=" M 124 292.128 L 144 280.581 L 144 257.487 L 124 269.034 L 124 292.128 Z " fill="rgb(200,63,63)" vector-effect="non-scaling-stroke" stroke-width="1" stroke="rgb(255,255,255)" stroke-linejoin="miter" stroke-linecap="square" stroke-miterlimit="3"/><path d=" M 104 280.581 L 124 292.128 L 124 269.034 L 104 257.487 L 104 280.581 Z " fill="rgb(157,42,42)" vector-effect="non-scaling-stroke" stroke-width="1" stroke="rgb(255,255,255)" stroke-linejoin="miter" stroke-linecap="square" stroke-miterlimit="3"/></g><g id="Group"><path d=" M 64 280.581 L 84 269.034 L 104 280.581 L 84 292.128 L 64 280.581 Z " fill="rgb(255,79,79)" vector-effect="non-scaling-stroke" stroke-width="1" stroke="rgb(255,255,255)" stroke-linejoin="miter" stroke-linecap="square" stroke-miterlimit="3"/><path d=" M 84 315.222 L 104 303.675 L 104 280.581 L 84 292.128 L 84 315.222 Z " fill="rgb(200,63,63)" vector-effect="non-scaling-stroke" stroke-width="1" stroke="rgb(255,255,255)" stroke-linejoin="miter" stroke-linecap="square" stroke-miterlimit="3"/><path d=" M 64 303.675 L 84 315.222 L 84 292.128 L 64 280.581 L 64 303.675 Z " fill="rgb(157,42,42)" vector-effect="non-scaling-stroke" stroke-width="1" stroke="rgb(255,255,255)" stroke-linejoin="miter" stroke-linecap="square" stroke-miterlimit="3"/></g><g id="Group"><path d=" M 64 257.487 L 84 245.94 L 104 257.487 L 84 269.034 L 64 257.487 Z " fill="rgb(255,79,79)" vector-effect="non-scaling-stroke" stroke-width="1" stroke="rgb(255,255,255)" stroke-linejoin="miter" stroke-linecap="square" stroke-miterlimit="3"/><path d=" M 84 292.128 L 104 280.581 L 104 257.487 L 84 269.034 L 84 292.128 Z " fill="rgb(200,63,63)" vector-effect="non-scaling-stroke" stroke-width="1" stroke="rgb(255,255,255)" stroke-linejoin="miter" stroke-linecap="square" stroke-miterlimit="3"/><path d=" M 64 280.581 L 84 292.128 L 84 269.034 L 64 257.487 L 64 280.581 Z " fill="rgb(157,42,42)" vector-effect="non-scaling-stroke" stroke-width="1" stroke="rgb(255,255,255)" stroke-linejoin="miter" stroke-linecap="square" stroke-miterlimit="3"/></g><g id="Group"><path d=" M 64 234.393 L 84 222.846 L 104 234.393 L 84 245.94 L 64 234.393 Z " fill="rgb(255,79,79)" vector-effect="non-scaling-stroke" stroke-width="1" stroke="rgb(255,255,255)" stroke-linejoin="miter" stroke-linecap="square" stroke-miterlimit="3"/><path d=" M 84 269.034 L 104 257.487 L 104 234.393 L 84 245.94 L 84 269.034 Z " fill="rgb(200,63,63)" vector-effect="non-scaling-stroke" stroke-width="1" stroke="rgb(255,255,255)" stroke-linejoin="miter" stroke-linecap="square" stroke-miterlimit="3"/><path d=" M 64 257.487 L 84 269.034 L 84 245.94 L 64 234.393 L 64 257.487 Z " fill="rgb(157,42,42)" vector-effect="non-scaling-stroke" stroke-width="1" stroke="rgb(255,255,255)" stroke-linejoin="miter" stroke-linecap="square" stroke-miterlimit="3"/></g><g id="Group"><path d=" M 64 211.299 L 84 199.752 L 104 211.299 L 84 222.846 L 64 211.299 Z " fill="rgb(255,79,79)" vector-effect="non-scaling-stroke" stroke-width="1" stroke="rgb(255,255,255)" stroke-linejoin="miter" stroke-linecap="square" stroke-miterlimit="3"/><path d=" M 84 245.94 L 104 234.393 L 104 211.299 L 84 222.846 L 84 245.94 Z " fill="rgb(200,63,63)" vector-effect="non-scaling-stroke" stroke-width="1" stroke="rgb(255,255,255)" stroke-linejoin="miter" stroke-linecap="square" stroke-miterlimit="3"/><path d=" M 64 234.393 L 84 245.94 L 84 222.846 L 64 211.299 L 64 234.393 Z " fill="rgb(157,42,42)" vector-effect="non-scaling-stroke" stroke-width="1" stroke="rgb(255,255,255)" stroke-linejoin="miter" stroke-linecap="square" stroke-miterlimit="3"/></g><g id="Group"><path d=" M 24 280.581 L 44 269.034 L 64 280.581 L 44 292.128 L 24 280.581 Z " fill="rgb(255,79,79)" vector-effect="non-scaling-stroke" stroke-width="1" stroke="rgb(255,255,255)" stroke-linejoin="miter" stroke-linecap="square" stroke-miterlimit="3"/><path d=" M 44 315.222 L 64 303.675 L 64 280.581 L 44 292.128 L 44 315.222 Z " fill="rgb(200,63,63)" vector-effect="non-scaling-stroke" stroke-width="1" stroke="rgb(255,255,255)" stroke-linejoin="miter" stroke-linecap="square" stroke-miterlimit="3"/><path d=" M 24 303.675 L 44 315.222 L 44 292.128 L 24 280.581 L 24 303.675 Z " fill="rgb(157,42,42)" vector-effect="non-scaling-stroke" stroke-width="1" stroke="rgb(255,255,255)" stroke-linejoin="miter" stroke-linecap="square" stroke-miterlimit="3"/></g></g></g></svg>